<?xml version="1.0" standalone="no"?>
<!DOCTYPE svg PUBLIC "-//W3C//DTD SVG 20010904//EN"
 "http://www.w3.org/TR/2001/REC-SVG-20010904/DTD/svg10.dtd">
<svg version="1.0" xmlns="http://www.w3.org/2000/svg"
 width="400.000000pt" height="400.000000pt" viewBox="0 0 400.000000 400.000000"
 preserveAspectRatio="xMidYMid meet">
<metadata>
Created by potrace 1.14, written by Peter Selinger 2001-2017
</metadata>
<g transform="translate(0.000000,400.000000) scale(0.100000,-0.100000)"
fill="#000000" stroke="none">
<path d="M1878 3609 l-3 -392 -30 26 c-17 14 -94 58 -170 98 -77 40 -160 86
-185 104 -25 17 -63 39 -86 49 -29 13 -43 26 -50 48 -14 47 -70 73 -167 75
-45 1 -100 9 -130 20 -44 15 -84 18 -262 17 -226 0 -380 -14 -515 -45 -104
-24 -117 -32 -207 -128 l-73 -76 0 -985 0 -984 60 -108 c33 -59 60 -118 60
-133 0 -17 8 -29 23 -36 12 -5 30 -22 39 -37 9 -15 30 -46 47 -69 29 -41 30
-44 23 -124 -7 -79 -8 -82 -25 -65 -14 14 -17 35 -17 111 l0 94 -48 13 -47 14
-3 -29 c-2 -16 3 -36 13 -46 9 -11 13 -25 9 -36 -5 -13 -4 -16 4 -11 8 5 10 2
6 -9 -4 -10 -10 -12 -18 -6 -9 7 -12 -8 -14 -57 -4 -87 9 -123 42 -120 14 1
24 5 24 8 -4 43 23 38 44 -9 20 -42 23 -67 8 -76 -10 -6 -14 7 -11 34 2 7 -2
10 -8 6 -6 -3 -11 -2 -11 2 0 5 -8 9 -18 10 -9 1 -24 3 -32 5 -10 2 -14 -4
-12 -17 2 -11 5 -40 6 -65 5 -63 17 -119 27 -126 5 -3 7 -9 4 -14 -3 -5 -1
-20 5 -34 8 -21 14 -25 33 -20 18 4 25 1 29 -14 4 -16 75 -63 159 -107 11 -5
17 -16 14 -22 -2 -8 4 -13 16 -13 11 0 22 -7 25 -15 4 -8 31 -20 65 -27 32 -7
59 -16 59 -20 0 -4 8 -8 18 -8 10 0 23 -5 29 -11 6 -6 49 -15 94 -20 46 -5 91
-12 99 -15 8 -3 53 -6 100 -5 47 0 99 1 115 1 17 0 55 5 85 11 30 6 66 12 80
13 41 4 204 39 210 45 3 3 14 11 25 17 36 19 56 73 49 131 l-6 52 38 6 c22 3
91 17 155 30 63 14 123 25 132 25 19 0 23 -15 7 -25 -6 -4 -7 -12 -3 -18 4 -7
9 -21 10 -32 4 -22 20 -35 45 -35 22 0 120 35 179 65 l46 22 12 -111 c11 -99
19 -150 36 -224 4 -14 10 -20 18 -17 7 4 4 0 -6 -8 -15 -13 -11 -15 45 -16 64
-1 111 -21 50 -21 -18 0 -32 -5 -32 -11 0 -6 6 -9 13 -6 8 3 20 1 28 -4 10 -6
8 -9 -11 -10 -14 0 -19 -3 -12 -6 6 -2 12 -13 12 -23 0 -12 10 -21 30 -25 17
-4 30 -13 30 -21 0 -12 122 -14 850 -14 l850 0 0 50 c0 46 -2 50 -24 50 -14 0
-39 13 -57 30 -22 19 -48 32 -78 36 -38 5 -81 31 -81 47 0 3 30 7 68 9 37 3
74 8 83 12 10 5 27 -2 47 -18 16 -15 33 -26 36 -26 3 0 6 33 6 74 l0 74 -44
36 c-34 28 -53 36 -84 36 -25 0 -49 7 -63 20 l-24 19 25 2 c25 2 35 3 98 15
22 4 38 2 50 -8 41 -35 42 -33 42 66 l0 96 -34 0 c-33 0 -62 20 -49 33 10 10
51 8 57 -2 4 -5 0 -12 -6 -14 -7 -3 -4 -6 7 -6 19 -1 21 6 24 100 2 76 -1 104
-11 111 -10 7 -10 11 0 15 9 3 12 61 12 238 l0 234 -167 5 c-93 3 -226 9 -298
13 l-130 8 -6 48 c-6 54 -18 66 -57 59 -43 -8 -55 -22 -49 -63 l5 -37 -46 -6
c-24 -3 -75 -6 -111 -6 -40 0 -72 -5 -80 -12 -11 -11 -13 -10 -7 0 5 9 -1 12
-21 12 -15 -1 -103 2 -194 6 l-167 7 -42 64 c-56 85 -132 166 -259 275 -58 50
-149 130 -202 177 l-96 86 15 37 c19 47 25 42 32 -25 l5 -52 99 -3 98 -3 -6
46 c-6 35 -4 45 7 45 9 0 14 -12 15 -35 1 -20 4 -40 6 -44 3 -5 39 -9 80 -10
l74 -2 -9 38 c-5 21 -12 49 -15 63 -3 14 -7 33 -10 43 -4 12 0 17 16 17 12 0
18 -4 15 -11 -12 -18 4 -59 23 -59 14 0 14 -2 3 -9 -11 -7 -12 -17 -5 -43 l10
-33 73 -3 73 -3 -7 33 c-4 18 -11 38 -15 43 -4 6 -11 25 -15 43 -8 41 9 43 24
2 6 -18 17 -30 28 -30 14 0 15 -2 4 -9 -11 -7 -11 -15 -1 -45 l12 -36 74 0
c41 0 74 2 74 4 0 2 -13 33 -30 69 -35 77 -35 77 -16 77 8 0 17 -13 21 -30 4
-17 10 -30 15 -30 4 0 10 -12 13 -27 13 -63 -8 -60 455 -66 232 -3 422 -2 422
1 0 4 -27 34 -60 67 -62 62 -70 75 -45 75 8 0 15 -7 15 -15 0 -8 7 -15 15 -15
9 0 18 -7 21 -15 4 -8 14 -15 23 -16 9 0 11 -3 4 -6 -8 -3 4 -20 29 -44 39
-37 45 -39 105 -39 34 0 63 4 63 9 0 5 -19 26 -42 47 -66 59 -93 94 -74 94 9
0 16 -6 16 -13 0 -8 11 -19 25 -25 14 -6 25 -16 25 -22 0 -6 19 -29 43 -50 30
-29 51 -40 74 -40 30 0 32 2 31 39 0 30 -7 46 -29 67 -30 29 -36 44 -19 44 6
0 10 -6 10 -14 0 -7 9 -16 20 -19 29 -8 26 28 -5 55 -26 23 -32 38 -15 38 6 0
10 -7 10 -15 0 -8 7 -15 15 -15 13 0 15 14 13 83 l-3 82 -45 2 c-25 0 -50 -3
-57 -8 -7 -6 -13 -6 -17 -1 -3 5 -29 10 -57 11 -41 0 -50 -2 -45 -14 3 -8 1
-15 -3 -15 -5 0 -11 5 -13 10 -2 6 -30 14 -62 17 -53 5 -59 4 -53 -10 8 -21 6
-21 -29 -2 -34 17 -54 19 -54 5 0 -5 -5 -10 -11 -10 -5 0 -7 5 -4 10 3 6 -1
10 -9 10 -14 0 -22 -24 -17 -52 0 -5 -4 -8 -10 -8 -6 0 -8 9 -4 20 5 15 0 22
-20 30 -43 16 -95 13 -95 -7 0 -15 -1 -15 -18 0 -18 17 -92 24 -105 10 -4 -3
5 -22 19 -40 14 -19 24 -36 22 -39 -3 -2 -20 16 -38 41 -32 42 -37 45 -81 45
-43 0 -48 -2 -46 -22 1 -13 7 -29 14 -36 7 -8 10 -18 7 -23 -3 -6 1 -9 9 -7
17 3 25 -14 9 -20 -13 -4 -62 67 -62 89 0 13 -11 18 -51 21 -28 1 -53 0 -56
-4 -2 -5 1 -8 6 -8 6 0 11 -7 11 -16 0 -13 -3 -14 -14 -5 -27 23 -29 -9 -1
-35 26 -24 27 -48 0 -38 -8 4 -12 10 -9 15 3 5 2 9 -3 9 -4 0 -13 11 -19 24
-9 20 -9 26 3 31 11 4 12 9 4 18 -13 16 -97 22 -106 7 -3 -5 -1 -10 4 -10 6 0
11 -4 11 -10 0 -19 -28 -10 -33 10 -4 17 -14 20 -57 20 -42 0 -51 -3 -46 -15
3 -8 9 -22 12 -30 3 -8 1 -15 -5 -15 -6 0 -11 4 -11 10 0 5 -8 19 -17 30 -22
26 -119 30 -109 5 3 -9 0 -15 -9 -15 -8 0 -15 7 -15 15 0 12 -13 15 -56 15
-46 0 -55 -3 -50 -15 7 -19 -10 -20 -21 0 -5 7 -25 16 -45 18 -21 2 -35 0 -32
-4 3 -5 0 -9 -5 -9 -6 0 -11 6 -11 13 0 8 -4 7 -10 -3 -7 -11 -5 -18 5 -26 16
-12 21 -59 5 -49 -5 3 -10 13 -10 21 0 26 -40 54 -86 61 -41 5 -46 4 -44 -13
8 -74 -14 -102 -25 -33 -5 30 -13 43 -27 47 -17 4 -19 11 -14 40 3 19 10 40
15 45 7 7 259 6 748 -2 406 -6 809 -11 896 -11 l157 0 0 86 c0 76 -2 85 -15
74 -24 -20 -27 -6 -5 23 11 14 20 31 20 38 0 7 -12 -4 -27 -24 -27 -35 -53
-54 -53 -39 0 4 18 28 40 52 33 38 50 70 37 70 -2 0 -27 -30 -56 -66 -37 -46
-56 -63 -64 -55 -7 7 -16 7 -29 0 -25 -13 -23 1 4 31 13 14 47 53 77 88 29 34
56 60 59 58 4 -5 -21 -39 -104 -139 -9 -11 -13 -21 -10 -25 3 -3 7 -3 9 -1 2
2 28 34 60 70 l56 65 1 411 0 410 -31 7 c-17 3 -54 6 -81 6 -33 0 -47 4 -42
11 3 6 32 10 68 9 33 -1 66 -2 72 -1 6 1 10 44 11 119 0 64 -1 105 -4 90 -5
-30 -20 -37 -29 -13 -4 8 -16 16 -28 16 -13 1 -7 5 14 9 19 4 26 8 15 9 -17 1
-18 3 -5 11 11 7 11 10 2 10 -7 0 -10 5 -7 10 10 16 38 12 31 -5 -3 -8 -1 -15
4 -15 6 0 10 18 10 40 l0 40 -64 0 c-36 0 -68 5 -71 10 -4 6 20 10 64 10 64 0
71 2 71 20 0 11 -3 19 -7 19 -22 -4 -43 2 -43 12 0 7 10 9 25 7 24 -5 25 -3
25 43 l0 49 -1060 0 -1060 0 -2 -391z m255 362 c8 -8 1 -11 -28 -11 -57 0
-115 11 -115 22 0 12 129 3 143 -11z m57 -1 c0 -5 -4 -10 -10 -10 -5 0 -10 5
-10 10 0 6 5 10 10 10 6 0 10 -4 10 -10z m153 0 c9 0 17 -4 17 -10 0 -5 -25
-10 -55 -10 -43 0 -55 3 -55 16 0 12 8 15 38 10 20 -3 45 -5 55 -6z m107 -10
c0 -5 -4 -10 -10 -10 -5 0 -10 5 -10 10 0 6 5 10 10 10 6 0 10 -4 10 -10z
m158 -4 c37 -5 55 -15 29 -17 -71 -4 -137 1 -137 10 0 12 28 19 55 15 11 -2
35 -5 53 -8z m97 -16 c-3 -5 -10 -10 -16 -10 -5 0 -9 5 -9 10 0 6 7 10 16 10
8 0 12 -4 9 -10z m184 0 c17 -10 1 -20 -25 -15 -10 2 -38 4 -61 4 -24 1 -43 5
-43 10 0 12 111 13 129 1z m71 -10 c0 -5 -4 -10 -10 -10 -5 0 -10 5 -10 10 0
6 5 10 10 10 6 0 10 -4 10 -10z m144 1 c36 -2 6 -14 -34 -13 -58 1 -60 1 -60
12 0 5 17 8 38 6 20 -2 46 -4 56 -5z m-1119 -11 c-3 -5 -10 -10 -16 -10 -5 0
-9 5 -9 10 0 6 7 10 16 10 8 0 12 -4 9 -10z m95 0 c0 -5 -4 -10 -10 -10 -5 0
-10 5 -10 10 0 6 5 10 10 10 6 0 10 -4 10 -10z m45 -9 c-6 -10 44 -21 96 -21
28 0 39 4 39 15 0 8 5 15 10 15 6 0 10 -7 10 -15 0 -8 6 -15 13 -16 6 0 24 -2
40 -3 16 -1 27 3 27 11 0 10 18 13 70 12 57 -1 70 -4 70 -18 0 -13 13 -16 73
-18 39 -1 143 -5 230 -9 142 -5 157 -5 151 10 -4 11 -1 16 11 16 11 0 15 -5
12 -14 -7 -18 33 -26 139 -26 73 0 83 2 77 16 -4 12 -2 15 8 12 8 -3 13 -11
12 -17 -2 -6 0 -11 5 -11 4 0 49 -3 101 -7 73 -4 95 -3 102 8 6 10 9 10 9 2 0
-8 14 -13 35 -13 26 0 33 3 29 15 -4 9 0 15 10 15 9 0 16 -6 16 -14 0 -18 22
-26 71 -26 21 0 39 -3 39 -7 0 -5 -7 -93 -15 -198 -18 -231 -19 -277 -4 -252
17 30 39 21 39 -17 0 -20 6 -36 14 -39 8 -3 17 -16 19 -29 2 -13 3 -9 2 7 -2
17 2 38 7 49 8 14 7 17 -4 10 -10 -6 -11 -5 -2 7 11 14 16 49 38 314 l11 140
25 -3 c14 -1 29 -8 35 -14 7 -8 4 -9 -12 -5 -20 4 -23 1 -23 -21 0 -15 -5 -78
-10 -141 -8 -91 -8 -116 2 -123 10 -6 10 -10 0 -17 -14 -8 -20 -68 -57 -521
-9 -107 -18 -210 -21 -228 l-5 -34 -435 4 c-426 3 -435 3 -439 23 -6 34 -4 89
5 110 5 11 13 107 17 213 9 210 12 195 -50 194 -15 0 -25 3 -22 8 3 4 -2 11
-11 14 -27 10 -322 7 -329 -4 -9 -15 -62 -12 -79 5 -10 11 -37 15 -93 16 -43
0 -103 5 -133 11 -48 8 -84 13 -140 17 -13 1 -15 13 -13 69 7 147 14 194 29
188 11 -4 13 3 8 37 -5 39 -4 40 8 19 11 -18 16 -20 27 -10 10 11 12 6 8 -22
-2 -19 -2 -27 0 -17 2 9 8 17 13 17 5 0 7 -6 5 -12 -3 -7 -1 -26 4 -43 6 -21
10 29 10 158 1 169 3 188 19 194 9 4 21 13 25 20 5 7 13 11 18 8 5 -4 7 -10 4
-14z m1035 15 c0 -11 -19 -15 -25 -6 -3 5 1 10 9 10 9 0 16 -2 16 -4z m50 -6
c0 -5 -4 -10 -10 -10 -5 0 -10 5 -10 10 0 6 5 10 10 10 6 0 10 -4 10 -10z
m158 4 c28 -8 29 -34 1 -34 -11 0 -17 5 -14 10 3 6 1 10 -4 10 -6 0 -11 -4
-11 -8 0 -10 -25 -12 -63 -5 -23 4 -26 7 -16 19 12 14 67 18 107 8z m-1128
-14 c0 -5 -4 -10 -10 -10 -5 0 -10 5 -10 10 0 6 5 10 10 10 6 0 10 -4 10 -10z
m1210 -5 c-7 -8 -22 -14 -34 -14 -20 2 -20 2 2 6 12 2 22 9 22 14 0 5 5 9 11
9 8 0 8 -5 -1 -15z m160 3 c0 -4 -22 -8 -50 -8 -28 0 -50 5 -50 10 0 7 20 10
50 9 28 -2 50 -6 50 -11z m244 6 c23 -9 20 -24 -4 -24 -11 0 -20 7 -20 15 0
17 2 18 24 9z m-144 -8 c0 -3 -4 -8 -10 -11 -5 -3 -10 -1 -10 4 0 6 5 11 10
11 6 0 10 -2 10 -4z m100 -6 c0 -13 -11 -13 -30 0 -12 8 -11 10 8 10 12 0 22
-4 22 -10z m125 0 c4 -6 -5 -10 -19 -10 -14 0 -26 5 -26 10 0 6 9 10 19 10 11
0 23 -4 26 -10z m-995 -20 c0 -5 -4 -10 -10 -10 -5 0 -10 5 -10 10 0 6 5 10
10 10 6 0 10 -4 10 -10z m70 0 c0 -5 -4 -10 -10 -10 -5 0 -10 5 -10 10 0 6 5
10 10 10 6 0 10 -4 10 -10z m160 -10 c0 -5 -4 -10 -10 -10 -5 0 -10 5 -10 10
0 6 5 10 10 10 6 0 10 -4 10 -10z m85 0 c3 -5 1 -10 -4 -10 -6 0 -11 5 -11 10
0 6 2 10 4 10 3 0 8 -4 11 -10z m37 -12 c-7 -7 -12 -8 -12 -2 0 6 3 14 7 17 3
4 9 5 12 2 2 -3 -1 -11 -7 -17z m56 4 c2 -7 -3 -12 -12 -12 -9 0 -16 7 -16 16
0 17 22 14 28 -4z m212 -2 c0 -5 -5 -10 -11 -10 -5 0 -7 5 -4 10 3 6 8 10 11
10 2 0 4 -4 4 -10z m85 -10 c-3 -5 -10 -10 -16 -10 -5 0 -9 5 -9 10 0 6 7 10
16 10 8 0 12 -4 9 -10z m45 0 c0 -5 -4 -10 -10 -10 -5 0 -10 5 -10 10 0 6 5
10 10 10 6 0 10 -4 10 -10z m95 0 c3 -5 1 -10 -4 -10 -6 0 -11 5 -11 10 0 6 2
10 4 10 3 0 8 -4 11 -10z m18 -85 c-3 -9 -8 -14 -10 -11 -3 3 -2 9 2 15 9 16
15 13 8 -4z m50 8 c-7 -2 -19 -2 -25 0 -7 3 -2 5 12 5 14 0 19 -2 13 -5z m57
-13 c0 -13 -7 -20 -20 -20 -11 0 -20 5 -20 10 0 6 6 10 13 10 8 0 7 4 -3 10
-12 8 -11 10 8 10 15 0 22 -6 22 -20z m-57 -20 c-3 -13 -13 -20 -27 -19 -18 1
-18 2 -3 6 18 5 18 5 0 19 -17 12 -16 13 9 14 21 0 25 -4 21 -20z m-56 -32
c-3 -7 -5 -2 -5 12 0 14 2 19 5 13 2 -7 2 -19 0 -25z m106 15 c-7 -2 -19 -2
-25 0 -7 3 -2 5 12 5 14 0 19 -2 13 -5z m-60 -20 c-7 -2 -19 -2 -25 0 -7 3 -2
5 12 5 14 0 19 -2 13 -5z m60 0 c-7 -2 -21 -2 -30 0 -10 3 -4 5 12 5 17 0 24
-2 18 -5z m-103 -33 c0 -11 -4 -20 -9 -20 -5 0 -7 9 -4 20 3 11 7 20 9 20 2 0
4 -9 4 -20z m48 -10 c2 -23 -2 -30 -15 -30 -13 0 -19 8 -19 30 -1 22 3 30 15
30 11 0 17 -10 19 -30z m52 10 c0 -14 -7 -20 -22 -20 -19 0 -20 2 -8 10 11 7
11 10 2 10 -7 0 -10 5 -7 10 11 18 35 11 35 -10z m90 4 c0 -2 -12 -4 -26 -4
-14 0 -23 4 -20 9 6 8 46 4 46 -5z m-7 -21 c-7 -2 -19 -2 -25 0 -7 3 -2 5 12
5 14 0 19 -2 13 -5z m-93 -23 c-8 -5 -10 -10 -3 -10 6 0 9 -9 6 -20 -3 -11
-13 -20 -22 -19 -10 0 -11 2 -3 6 6 2 9 10 5 16 -15 24 -11 37 10 37 18 0 19
-2 7 -10z m-47 -30 c-3 -11 -10 -20 -17 -20 -6 0 -4 -5 4 -10 12 -8 11 -10 -5
-10 -25 0 -30 40 -5 41 10 0 9 3 -5 9 -18 8 -17 9 7 9 21 1 25 -3 21 -19z
m137 10 c0 -5 -13 -10 -29 -10 -17 0 -33 5 -36 10 -4 6 8 10 29 10 20 0 36 -4
36 -10z m-193 -42 c-3 -7 -5 -2 -5 12 0 14 2 19 5 13 2 -7 2 -19 0 -25z m193
7 c0 -9 -10 -15 -22 -16 -17 -1 -19 -2 -5 -6 28 -7 20 -20 -13 -20 -16 0 -30
4 -30 9 0 4 6 8 13 8 8 0 7 4 -3 10 -12 8 -10 10 10 11 l25 1 -25 8 c-22 7
-21 8 13 9 27 1 37 -3 37 -14z m-93 -20 c0 -15 -26 -29 -36 -19 -3 4 0 9 8 12
11 4 11 6 0 13 -11 7 -9 9 7 9 11 0 21 -6 21 -15z m-54 -12 c-7 -2 -19 -2 -25
0 -7 3 -2 5 12 5 14 0 19 -2 13 -5z m-1863 -253 c0 -5 -2 -10 -4 -10 -3 0 -8
5 -11 10 -3 6 -1 10 4 10 6 0 11 -4 11 -10z m25 -35 c0 -5 -10 -11 -22 -13
-16 -2 -23 2 -23 13 0 11 7 15 23 13 12 -2 22 -7 22 -13z m63 9 c34 -10 26
-24 -13 -24 -24 0 -35 5 -35 15 0 16 12 18 48 9z m80 -11 c5 -17 -26 -29 -40
-15 -6 6 -7 15 -3 22 9 14 37 9 43 -7z m70 -5 c-3 -7 -15 -13 -28 -13 -13 0
-25 6 -27 13 -3 8 6 12 27 12 21 0 30 -4 28 -12z m62 -3 c0 -9 -9 -15 -25 -15
-16 0 -25 6 -25 15 0 9 9 15 25 15 16 0 25 -6 25 -15z m-212 -53 c2 -7 -3 -12
-12 -12 -9 0 -16 7 -16 16 0 17 22 14 28 -4z m-48 -17 c0 -27 -12 -32 -29 -12
-8 10 -7 17 1 25 19 19 28 14 28 -13z m140 15 c0 -5 -5 -10 -11 -10 -5 0 -7 5
-4 10 3 6 8 10 11 10 2 0 4 -4 4 -10z m1770 -28 c0 -9 -106 -72 -121 -72 -25
0 -4 30 39 53 46 26 82 34 82 19z m-993 -470 c39 -1 83 -6 98 -12 14 -5 41
-10 58 -11 26 0 28 -2 12 -8 l-20 -8 20 -5 c18 -5 18 -6 -2 -7 -23 -1 -33 -21
-11 -21 9 0 9 -3 0 -12 -7 -7 -12 -22 -12 -35 0 -34 -34 -43 -154 -43 l-103 0
2 28 c1 15 3 51 3 80 1 33 6 51 12 47 6 -3 10 2 10 12 0 11 3 14 8 7 4 -5 39
-11 79 -12z m1014 -19 c-11 -16 -34 -44 -51 -63 -29 -32 -31 -33 -15 -6 18 30
75 96 82 96 3 0 -5 -12 -16 -27z m-858 10 c-7 -2 -21 -2 -30 0 -10 3 -4 5 12
5 17 0 24 -2 18 -5z m-1368 -93 c14 -16 16 -29 11 -72 -9 -68 -67 -290 -115
-443 -21 -66 -47 -155 -57 -199 -20 -84 -44 -115 -86 -110 -13 1 -26 3 -30 3
-10 1 -10 45 -1 55 4 4 9 19 10 34 2 15 15 68 28 117 23 87 65 255 100 400 20
82 19 78 30 130 16 77 33 105 64 105 15 0 36 -9 46 -20z m225 -323 c0 -1 -13
-42 -29 -92 -17 -49 -46 -144 -66 -210 -23 -76 -43 -126 -57 -137 -25 -22 -68
-24 -68 -4 0 8 16 68 36 133 20 65 40 132 44 150 l8 32 -35 -26 c-40 -31 -66
-24 -71 19 -3 21 6 31 50 59 29 18 70 46 91 62 20 16 37 25 37 21 0 -4 5 -3
12 4 7 7 17 8 30 1 10 -5 18 -11 18 -12z m610 -36 c0 -5 3 -16 6 -25 10 -26
-12 -18 -24 9 -10 21 -9 25 3 25 8 0 15 -4 15 -9z m150 0 c0 -5 3 -16 6 -25
10 -26 -12 -18 -24 9 -10 21 -9 25 3 25 8 0 15 -4 15 -9z m150 -10 c12 -24 13
-31 2 -31 -5 0 -14 11 -20 25 -14 29 2 34 18 6z m-370 5 c0 -3 -4 -8 -10 -11
-5 -3 -10 -1 -10 4 0 6 5 11 10 11 6 0 10 -2 10 -4z m150 -6 c0 -5 -4 -10 -10
-10 -5 0 -10 5 -10 10 0 6 5 10 10 10 6 0 10 -4 10 -10z m295 0 c3 -5 1 -10
-4 -10 -6 0 -11 5 -11 10 0 6 2 10 4 10 3 0 8 -4 11 -10z m155 -10 c0 -5 -4
-10 -9 -10 -6 0 -13 5 -16 10 -3 6 1 10 9 10 9 0 16 -4 16 -10z m300 0 c0 -5
-8 -10 -17 -10 -15 0 -16 2 -3 10 19 12 20 12 20 0z m66 -9 c14 -11 21 -22 16
-25 -5 -3 -20 6 -32 19 -28 30 -18 33 16 6z m164 -22 c0 -6 -4 -7 -10 -4 -5 3
-10 11 -10 16 0 6 5 7 10 4 6 -3 10 -11 10 -16z m145 11 c3 -5 1 -10 -4 -10
-6 0 -11 5 -11 10 0 6 2 10 4 10 3 0 8 -4 11 -10z m150 0 c3 -5 1 -10 -4 -10
-6 0 -11 5 -11 10 0 6 2 10 4 10 3 0 8 -4 11 -10z m-1565 -25 c0 -14 -4 -25
-9 -25 -5 0 -11 11 -13 25 -4 17 -1 25 8 25 8 0 14 -11 14 -25z m153 3 c4 -12
4 -24 1 -27 -6 -7 -24 20 -24 37 0 21 17 13 23 -10z m157 8 c0 -8 3 -21 6 -30
10 -27 -12 -18 -24 9 -15 33 -15 35 3 35 8 0 15 -6 15 -14z m157 -16 c9 -25 9
-30 -3 -30 -8 0 -14 3 -14 8 0 4 -3 17 -6 30 -9 33 10 27 23 -8z m-598 4 c2
-2 -12 -4 -33 -4 -22 0 -35 4 -31 10 5 9 52 4 64 -6z m216 7 c3 -6 -4 -9 -15
-8 -11 1 -20 5 -20 9 0 11 28 10 35 -1z m300 -1 c3 -5 -1 -10 -10 -10 -9 0
-13 5 -10 10 3 6 8 10 10 10 2 0 7 -4 10 -10z m165 -6 c0 -2 -7 -4 -15 -4 -8
0 -15 4 -15 10 0 5 7 7 15 4 8 -4 15 -8 15 -10z m71 -6 c23 -25 23 -28 6 -28
-8 0 -19 11 -25 25 -14 31 -6 32 19 3z m145 13 c-4 -5 -1 -11 5 -13 6 -2 13
-18 15 -36 3 -30 2 -32 -27 -32 -32 0 -66 24 -50 35 6 3 22 3 36 -1 28 -7 33
7 10 26 -19 16 -19 30 1 30 8 0 13 -4 10 -9z m149 0 c-3 -6 4 -15 15 -21 11
-6 20 -17 20 -24 0 -9 7 -12 19 -9 11 3 28 -5 44 -21 30 -30 17 -46 -13 -18
-17 16 -28 18 -56 12 -19 -4 -34 -4 -34 0 0 5 -12 13 -27 18 l-28 10 33 1 c35
1 41 11 17 31 -19 16 -19 30 1 30 8 0 13 -4 9 -9z m-682 -8 c-7 -2 -19 -2 -25
0 -7 3 -2 5 12 5 14 0 19 -2 13 -5z m782 -3 c3 -5 -3 -10 -14 -10 -12 0 -21 5
-21 10 0 6 6 10 14 10 8 0 18 -4 21 -10z m67 -10 c12 -11 18 -23 14 -27 -3 -4
-19 5 -34 20 -30 31 -12 37 20 7z m154 -5 c16 -15 21 -25 13 -25 -8 0 -22 12
-32 25 -23 32 -15 32 19 0z m134 15 c0 -5 -2 -10 -4 -10 -3 0 -8 5 -11 10 -3
6 -1 10 4 10 6 0 11 -4 11 -10z m-1320 -39 c0 -11 3 -26 6 -35 3 -9 2 -16 -4
-16 -6 0 -15 14 -21 31 -14 40 -14 39 4 39 8 0 15 -9 15 -19z m163 -13 c8 -54
-7 -53 -23 1 -6 23 -5 31 5 31 7 0 15 -15 18 -32z m157 20 c0 -7 3 -23 6 -35
7 -27 -11 -32 -19 -5 -2 9 -8 25 -12 35 -5 12 -2 17 9 17 9 0 16 -6 16 -12z
m166 -26 c11 -27 11 -32 0 -32 -8 0 -16 8 -19 18 -2 9 -8 25 -12 36 -6 13 -4
17 4 15 7 -3 19 -19 27 -37z m44 29 c0 -5 -7 -11 -14 -14 -10 -4 -13 -1 -9 9
6 15 23 19 23 5z m106 -7 c3 -21 29 -74 37 -74 4 0 5 5 2 10 -3 6 -1 10 4 10
6 0 11 -4 11 -9 0 -5 2 -16 5 -23 4 -10 -4 -15 -29 -16 -26 -2 -38 3 -50 20
-12 17 -16 19 -16 6 0 -34 29 -48 96 -48 35 0 64 2 64 5 0 3 -9 15 -20 27 -10
12 -17 25 -14 30 11 17 29 7 44 -25 15 -31 17 -32 90 -35 60 -3 73 -1 63 9 -8
8 -34 12 -70 10 -48 -2 -60 1 -70 18 -10 16 -9 20 4 25 13 5 11 11 -11 31 -15
14 -25 25 -22 25 2 0 11 3 20 6 9 3 16 1 16 -6 0 -6 6 -18 14 -26 8 -7 16 -19
18 -26 3 -7 21 -11 47 -10 34 2 46 -3 65 -25 17 -19 35 -27 67 -30 59 -6 75
-20 49 -43 -15 -13 -17 -20 -8 -24 7 -3 -80 -4 -194 -3 -178 3 -210 5 -226 20
-10 9 -27 18 -38 18 -10 1 -3 5 16 9 31 6 32 8 15 15 -23 10 -50 35 -39 35 5
0 3 5 -4 12 -7 7 -12 16 -12 21 0 9 65 1 83 -10 11 -7 5 6 -24 48 -18 26 -15
43 5 36 6 -2 12 -8 12 -13z m719 6 c3 -5 1 -10 -4 -10 -6 0 -11 5 -11 10 0 6
2 10 4 10 3 0 8 -4 11 -10z m155 0 c0 -5 -2 -10 -4 -10 -3 0 -8 5 -11 10 -3 6
-1 10 4 10 6 0 11 -4 11 -10z m-1722 -17 c-10 -2 -26 -2 -35 0 -10 3 -2 5 17
5 19 0 27 -2 18 -5z m49 1 c-3 -3 -12 -4 -19 -1 -8 3 -5 6 6 6 11 1 17 -2 13
-5z m247 -2 c3 -5 -1 -9 -9 -9 -8 0 -12 4 -9 9 3 4 7 8 9 8 2 0 6 -4 9 -8z
m161 -2 c3 -5 -1 -10 -9 -10 -9 0 -16 5 -16 10 0 6 4 10 9 10 6 0 13 -4 16
-10z m165 0 c0 -5 -7 -10 -15 -10 -8 0 -15 5 -15 10 0 6 7 10 15 10 8 0 15 -4
15 -10z m155 0 c3 -5 -1 -10 -9 -10 -9 0 -16 5 -16 10 0 6 4 10 9 10 6 0 13
-4 16 -10z m545 -1 c0 -7 8 -18 17 -25 10 -7 15 -15 11 -19 -7 -7 -58 34 -58
47 0 4 7 8 15 8 8 0 15 -5 15 -11z m172 -19 c18 -16 27 -30 20 -30 -11 0 -62
46 -62 56 0 9 11 2 42 -26z m138 15 c0 -8 -2 -15 -4 -15 -2 0 -6 7 -10 15 -3
8 -1 15 4 15 6 0 10 -7 10 -15z m-370 -5 c0 -5 -4 -10 -10 -10 -5 0 -10 5 -10
10 0 6 5 10 10 10 6 0 10 -4 10 -10z m150 0 c0 -5 -5 -10 -11 -10 -5 0 -7 5
-4 10 3 6 8 10 11 10 2 0 4 -4 4 -10z m260 -31 c0 -14 -17 -10 -23 5 -4 10 -1
13 9 9 7 -3 14 -9 14 -14z m-1687 4 c-7 -2 -19 -2 -25 0 -7 3 -2 5 12 5 14 0
19 -2 13 -5z m180 0 c-7 -2 -19 -2 -25 0 -7 3 -2 5 12 5 14 0 19 -2 13 -5z
m-159 -25 c-3 -4 -14 -8 -25 -8 -11 0 -18 4 -15 8 2 4 14 8 25 8 11 0 17 -4
15 -8z m41 2 c3 -5 1 -10 -4 -10 -6 0 -11 5 -11 10 0 6 2 10 4 10 3 0 8 -4 11
-10z m352 -5 c0 -8 -6 -15 -12 -15 -6 0 -12 7 -12 15 0 8 6 15 12 15 6 0 12
-7 12 -15z m170 0 c0 -6 -6 -12 -14 -12 -7 0 -13 6 -13 12 0 6 6 12 13 12 8 0
14 -6 14 -12z m159 6 c-4 -5 0 -12 6 -14 8 -4 7 -6 -4 -6 -9 -1 -24 2 -33 5
-13 5 -14 8 -3 15 18 12 41 11 34 0z m586 -24 c15 -17 28 -32 28 -33 0 -11
-22 -1 -40 18 -15 17 -30 22 -55 19 -19 -1 -44 1 -56 4 -33 11 -3 25 50 23 35
-1 50 -8 73 -31z m106 9 c3 -3 -9 -6 -26 -6 -18 0 -32 4 -32 9 0 9 48 6 58 -3z
m-1160 -33 c-10 -2 -28 -2 -40 0 -13 2 -5 4 17 4 22 1 32 -1 23 -4z m-255 -30
c-7 -2 -21 -2 -30 0 -10 3 -4 5 12 5 17 0 24 -2 18 -5z m437 -3 c0 -5 -11 -10
-24 -10 -14 0 -28 5 -31 10 -4 6 7 10 24 10 17 0 31 -4 31 -10z m157 -6 c-3
-3 -12 -4 -19 -1 -8 3 -5 6 6 6 11 1 17 -2 13 -5z m1040 0 c-3 -3 -12 -4 -19
-1 -8 3 -5 6 6 6 11 1 17 -2 13 -5z m-827 -8 c0 -2 -9 -6 -20 -9 -11 -3 -18
-1 -14 4 5 9 34 13 34 5z m995 -16 c3 -5 2 -10 -4 -10 -5 0 -13 5 -16 10 -3 6
-2 10 4 10 5 0 13 -4 16 -10z m-2335 -462 c0 -7 -30 -27 -67 -45 l-66 -32 24
27 c41 48 61 62 85 62 13 0 24 -6 24 -12z m295 -34 c81 -40 164 -119 200 -191
41 -82 42 -178 2 -245 -30 -51 -98 -102 -161 -120 -59 -16 -172 -14 -235 5
-140 43 -279 173 -316 294 -21 68 -20 87 5 80 11 -3 20 -1 20 4 0 5 -9 9 -20
9 -31 0 -23 17 10 22 29 4 30 4 30 -38 0 -24 5 -46 12 -50 7 -5 8 -3 3 6 -6
10 -3 12 13 8 12 -4 22 -2 22 4 0 6 9 8 20 5 13 -3 18 -1 13 6 -4 6 2 8 15 5
12 -4 22 -2 22 4 0 6 9 8 20 5 13 -3 18 -1 13 6 -4 6 2 8 15 5 12 -4 22 -2 22
4 0 6 9 8 20 5 11 -3 20 -1 20 5 0 6 9 8 20 5 13 -3 18 -1 13 6 -4 6 2 8 15 5
12 -4 22 -2 22 4 0 6 9 8 20 5 13 -3 18 -1 13 6 -4 6 2 8 15 5 12 -4 22 -2 22
4 0 6 9 8 20 5 11 -3 20 -1 20 5 0 6 9 8 20 5 11 -3 18 -2 15 3 -7 11 51 21
72 13 16 -6 16 -5 5 10 -19 23 -96 64 -146 79 -51 14 -48 12 -41 30 8 20 50
11 130 -28z m-122 -56 c16 -16 15 -17 -35 -32 -49 -14 -120 -29 -90 -19 9 3
12 13 8 28 -5 20 0 27 29 41 19 9 35 21 35 27 0 6 8 2 17 -8 10 -11 26 -28 36
-37z m-315 -18 c-11 -18 -28 -27 -28 -16 0 6 30 36 36 36 2 0 -1 -9 -8 -20z
m96 12 c3 -5 -1 -9 -9 -9 -8 0 -12 4 -9 9 3 4 7 8 9 8 2 0 6 -4 9 -8z m81 -12
c-3 -5 -12 -10 -18 -10 -7 0 -6 4 3 10 19 12 23 12 15 0z m255 0 c0 -5 -2 -10
-4 -10 -3 0 -8 5 -11 10 -3 6 -1 10 4 10 6 0 11 -4 11 -10z m-60 -16 c0 -8 -4
-12 -10 -9 -5 3 -10 10 -10 16 0 5 5 9 10 9 6 0 10 -7 10 -16z m-95 -24 c3 -5
2 -10 -4 -10 -5 0 -13 5 -16 10 -3 6 -2 10 4 10 5 0 13 -4 16 -10z m1255 1 c0
-5 17 -15 38 -22 20 -7 31 -14 24 -17 -18 -6 -93 28 -86 39 7 12 24 11 24 0z
m-1295 -11 c3 -5 -1 -10 -9 -10 -9 0 -16 5 -16 10 0 6 4 10 9 10 6 0 13 -4 16
-10z m1179 0 c14 -5 26 -15 26 -21 0 -8 -4 -9 -13 0 -8 6 -16 9 -19 6 -3 -3
-11 1 -18 10 -15 18 -11 19 24 5z m-1249 -20 c3 -5 -1 -10 -9 -10 -9 0 -16 5
-16 10 0 6 4 10 9 10 6 0 13 -4 16 -10z m1071 -26 c13 -1 36 -12 50 -23 15
-12 33 -21 40 -21 8 0 14 -4 14 -10 0 -5 -2 -10 -5 -10 -15 0 -73 29 -88 44
-9 10 -17 13 -17 8 0 -6 -10 -6 -25 1 -14 7 -25 18 -25 26 0 11 3 11 16 1 8
-8 26 -15 40 -16z m234 15 c0 -5 4 -8 9 -4 5 3 12 1 16 -5 10 -16 -21 -12 -35
5 -9 10 -9 15 -1 15 6 0 11 -5 11 -11z m320 -1 c0 -11 -22 -10 -39 1 -10 7 -7
9 12 8 15 -1 27 -5 27 -9z m-1705 -16 c-3 -3 -11 0 -18 7 -9 10 -8 11 6 5 10
-3 15 -9 12 -12z m1297 1 c2 -5 19 -16 38 -25 29 -14 31 -17 13 -17 -13 -1
-23 4 -23 10 0 5 -4 8 -9 5 -4 -3 -16 3 -26 14 -10 11 -13 20 -7 20 6 0 12 -3
14 -7z m-132 -85 c0 -14 -15 -9 -38 12 -31 29 -27 34 8 13 17 -9 30 -21 30
-25z m618 -5 c-21 -2 -57 -2 -80 0 -24 2 -7 4 37 4 44 0 63 -2 43 -4z m269
-19 c-3 -3 -12 -4 -19 -1 -8 3 -5 6 6 6 11 1 17 -2 13 -5z m29 -49 c12 -8 24
-23 26 -33 5 -18 1 -20 -58 -18 -35 1 -61 -1 -58 -5 2 -4 -9 -1 -26 7 -16 9
-32 20 -35 25 -4 5 -10 7 -15 4 -4 -3 -7 3 -6 12 5 32 126 37 172 8z m-1162
-80 c8 -8 17 -11 20 -6 8 12 54 1 60 -15 7 -18 -25 -19 -43 -1 -9 8 -12 8 -7
0 4 -7 -2 -14 -15 -18 -20 -7 -18 -20 4 -20 7 0 13 -8 15 -17 2 -10 -2 -18 -8
-18 -6 0 -8 5 -4 12 5 8 2 9 -10 5 -17 -7 -26 7 -40 66 -7 30 4 35 28 12z
m780 -43 c37 -52 28 -62 -50 -62 -43 0 -52 3 -61 23 -7 16 -6 29 5 47 10 18
10 21 1 10 -20 -22 -40 -23 -54 -3 -13 17 -9 18 43 24 82 8 83 8 116 -39z
m287 21 c50 -56 54 -64 38 -74 -20 -12 -63 -11 -96 3 -38 16 -39 18 -24 27 21
14 -16 44 -39 31 -13 -7 -21 -6 -30 5 -9 11 -3 15 37 20 26 4 53 8 58 10 22 8
32 4 56 -22z m185 12 c13 -12 12 -15 -5 -24 -14 -8 -22 -7 -30 3 -10 11 -8 15
6 19 10 3 -1 5 -23 6 -37 1 -43 -2 -48 -24 -10 -41 -51 -29 -80 23 -11 19 161
17 180 -3z m-1146 -4 c0 -5 8 -12 18 -14 13 -4 12 -5 -4 -6 -12 0 -24 6 -28
14 -3 8 -1 15 4 15 6 0 10 -4 10 -9z m1289 -36 c36 -38 40 -45 22 -45 -11 0
-23 -4 -26 -10 -3 -5 -14 -10 -23 -9 -11 0 -9 4 8 10 19 8 21 12 11 19 -8 4
-24 4 -37 0 -24 -10 -64 -3 -64 11 0 5 18 7 40 4 21 -2 42 0 45 5 4 6 3 10 -2
9 -16 -4 -63 13 -63 23 0 5 -4 7 -9 3 -5 -3 -12 -1 -15 4 -6 10 14 18 50 20
12 1 37 -17 63 -44z m-1316 -2 c-18 -7 -16 -23 2 -23 8 0 15 5 15 11 0 5 5 7
10 4 14 -9 2 -25 -18 -25 -25 0 -46 16 -38 29 4 6 15 11 24 10 11 0 12 -3 5
-6z m447 -62 c-7 -17 -10 -38 -6 -46 3 -9 2 -13 -4 -10 -6 3 -10 -1 -10 -10 0
-9 4 -14 9 -11 5 3 11 -4 14 -15 3 -12 10 -18 15 -15 6 4 8 -3 4 -16 -3 -14
-1 -19 6 -14 6 3 13 2 17 -3 7 -13 -20 -27 -68 -36 -45 -9 -87 9 -87 36 0 9
-5 19 -11 21 -6 2 -17 18 -25 36 l-13 32 34 0 c21 0 39 7 47 18 19 25 80 74
86 68 2 -3 -1 -19 -8 -35z m385 -93 c39 -59 43 -73 18 -74 -10 -1 -43 -4 -73
-8 -39 -5 -51 -4 -40 3 11 8 11 11 2 11 -7 0 -11 4 -8 8 3 5 -3 14 -14 22 -10
7 -16 20 -12 28 3 10 1 13 -6 8 -12 -7 -66 3 -58 12 3 3 0 12 -7 20 -10 13 -9
15 8 10 11 -3 41 -2 65 2 86 14 87 14 125 -42z m334 2 c50 -59 50 -86 0 -75
-22 5 -29 4 -25 -4 5 -7 -7 -11 -36 -10 -34 2 -37 3 -13 6 46 7 52 20 19 45
-16 13 -32 22 -36 21 -5 -2 -8 3 -8 11 0 7 -8 20 -18 27 -9 8 -16 13 -14 13 2
-1 15 2 30 6 48 15 58 11 101 -40z m-1158 18 c7 -13 16 -26 21 -29 5 -3 11
-16 13 -29 2 -13 10 -27 17 -32 19 -12 -60 -10 -82 2 -17 9 -40 65 -40 98 0
22 58 14 71 -10z m99 -1 c0 -5 -13 -7 -30 -5 -16 2 -31 0 -33 -6 -2 -5 -9 -6
-15 -2 -7 4 -10 11 -7 16 7 12 85 8 85 -3z m914 -3 c9 -24 4 -25 -24 -4 -24
19 -24 20 -4 20 12 0 25 -7 28 -16z m314 0 c6 3 16 -2 23 -11 12 -15 12 -16
-4 -10 -10 4 -25 7 -32 7 -7 0 -16 7 -19 16 -5 14 -4 15 8 5 8 -7 19 -10 24
-7z m-3569 -26 c49 -7 84 -18 98 -31 22 -20 22 -37 0 -37 -7 0 -6 4 3 11 13 9
12 10 -2 5 -10 -3 -24 2 -33 10 -13 14 -15 13 -15 -9 0 -23 4 -25 45 -24 50 1
81 -17 51 -29 -26 -10 -200 12 -235 31 -22 11 -31 23 -31 39 0 38 11 58 28 51
9 -3 50 -11 91 -17z m2476 5 c-4 -10 -15 -42 -25 -72 l-17 -54 -12 48 c-6 26
-19 58 -28 71 l-15 24 52 0 c46 0 51 -2 45 -17z m65 -38 c0 -5 -5 -3 -10 5 -5
8 -10 20 -10 25 0 6 5 3 10 -5 5 -8 10 -19 10 -25z m397 -31 c-3 -3 -12 -4
-19 -1 -8 3 -5 6 6 6 11 1 17 -2 13 -5z m-827 -14 c0 -5 -2 -10 -4 -10 -3 0
-8 5 -11 10 -3 6 -1 10 4 10 6 0 11 -4 11 -10z m534 -142 c-4 -7 -3 -8 4 -4 7
4 12 5 12 2 0 -2 3 -12 7 -22 5 -13 2 -16 -8 -12 -8 3 -50 0 -94 -7 -80 -13
-246 -13 -297 0 -22 6 -30 16 -39 47 -11 44 -7 57 14 39 11 -9 17 -8 26 2 6 8
9 16 7 18 -7 7 188 3 222 -5 18 -4 30 -11 27 -16 -3 -4 5 -10 18 -14 35 -9 47
-7 47 9 0 8 5 15 11 15 5 0 7 -6 3 -12 -4 -8 -2 -8 7 1 11 10 11 15 1 18 -6 3
-9 9 -6 15 4 6 15 -5 26 -26 10 -20 16 -42 12 -48z m367 26 c24 -33 37 -60 32
-65 -13 -13 -106 -29 -131 -22 -13 3 -22 13 -22 25 0 10 -4 16 -10 13 -5 -3
-10 0 -10 7 0 7 -14 25 -32 40 -18 14 -30 30 -26 34 6 6 84 18 140 23 10 0 34
-22 59 -55z m363 2 c25 -29 46 -58 46 -63 0 -12 -46 -23 -91 -23 -17 0 -29 5
-29 13 0 19 -52 67 -78 72 -49 9 -58 33 -12 30 16 -1 27 2 24 6 -4 7 25 14 73
18 15 1 36 -16 67 -53z m-1114 23 c0 -6 -4 -7 -10 -4 -5 3 -10 11 -10 16 0 6
5 7 10 4 6 -3 10 -11 10 -16z m-323 -41 c-3 -7 -5 -2 -5 12 0 14 2 19 5 13 2
-7 2 -19 0 -25z m-2049 -8 c-7 -10 -14 -18 -15 -16 -6 6 9 36 18 36 5 0 4 -9
-3 -20z m2989 -56 c-3 -3 -12 -4 -19 -1 -8 3 -5 6 6 6 11 1 17 -2 13 -5z m390
0 c-3 -3 -12 -4 -19 -1 -8 3 -5 6 6 6 11 1 17 -2 13 -5z m-423 -129 c20 -30
36 -59 36 -64 0 -19 -76 -25 -305 -26 -160 0 -236 4 -251 12 -11 6 -26 31 -33
53 -7 23 -15 49 -18 58 -5 10 -2 13 6 8 21 -13 445 -5 459 9 3 3 20 5 37 5 28
0 37 -7 69 -55z m406 -1 c51 -53 53 -57 35 -70 -11 -8 -43 -14 -75 -14 -51 0
-58 3 -78 30 -12 16 -36 37 -53 45 -40 21 -33 37 22 52 80 21 92 18 149 -43z
m367 -90 c-3 -3 -12 -4 -19 -1 -8 3 -5 6 6 6 11 1 17 -2 13 -5z m-428 -149
c29 -31 51 -61 48 -68 -6 -20 -93 -27 -419 -33 -243 -5 -314 -4 -339 7 -28 11
-30 14 -13 20 10 4 31 8 47 8 15 1 27 6 27 12 0 6 7 17 15 26 12 11 19 12 29
4 21 -18 32 6 12 27 -17 19 -24 18 209 27 99 3 239 15 244 21 2 2 23 4 46 4
38 0 47 -5 94 -55z m-1354 -15 c3 -5 1 -10 -4 -10 -6 0 -11 5 -11 10 0 6 2 10
4 10 3 0 8 -4 11 -10z m592 -66 c-3 -3 -12 -4 -19 -1 -8 3 -5 6 6 6 11 1 17
-2 13 -5z"/>
<path d="M2413 3883 c9 -2 25 -2 35 0 9 3 1 5 -18 5 -19 0 -27 -2 -17 -5z"/>
<path d="M3288 3903 c7 -3 16 -2 19 1 4 3 -2 6 -13 5 -11 0 -14 -3 -6 -6z"/>
<path d="M2858 2663 c7 -3 16 -2 19 1 4 3 -2 6 -13 5 -11 0 -14 -3 -6 -6z"/>
<path d="M2995 2630 c3 -5 10 -10 16 -10 5 0 9 5 9 10 0 6 -7 10 -16 10 -8 0
-12 -4 -9 -10z"/>
<path d="M1858 1283 c7 -3 16 -2 19 1 4 3 -2 6 -13 5 -11 0 -14 -3 -6 -6z"/>
<path d="M2095 1210 c5 -9 2 -10 -15 -5 -16 5 -20 4 -15 -4 5 -8 -2 -10 -22
-6 -19 5 -24 4 -15 -3 11 -7 8 -11 -11 -16 -14 -3 -33 -3 -43 1 -11 4 -15 3
-10 -5 8 -14 -26 -25 -49 -16 -13 6 -16 4 -10 -5 6 -10 2 -11 -15 -6 -16 5
-20 4 -15 -5 5 -9 1 -10 -15 -5 -13 4 -20 3 -17 -2 8 -13 -156 -65 -178 -56
-12 4 -16 3 -12 -4 9 -15 -21 -25 -47 -17 -20 6 -20 6 2 -19 68 -73 229 -120
334 -98 60 13 126 54 154 96 36 54 39 172 5 183 -9 3 -11 0 -6 -8z m-33 -110
c23 -1 -20 -21 -54 -25 -17 -2 -35 -10 -39 -17 -5 -7 -9 -9 -9 -4 0 5 -7 3
-15 -4 -12 -10 -16 -9 -21 4 -3 9 -10 13 -16 10 -5 -3 -7 -13 -4 -21 4 -10 2
-13 -8 -10 -7 3 -23 -1 -35 -9 -12 -8 -26 -12 -31 -9 -6 3 -10 0 -10 -7 -1
-12 -29 29 -30 42 -1 17 39 5 49 -13 10 -20 10 -20 5 6 -7 29 4 35 25 15 10
-11 11 -10 6 4 -11 27 41 44 66 22 16 -15 17 -14 12 8 -6 23 -6 23 15 5 20
-18 20 -18 15 2 -5 20 8 27 40 22 4 0 7 5 8 12 0 6 4 2 9 -10 5 -13 15 -23 22
-23z m-276 -67 c18 -24 17 -43 -1 -43 -8 0 -15 5 -15 11 0 5 5 7 12 3 7 -4 8
-3 4 4 -4 7 -14 12 -22 12 -15 0 -19 12 -7 23 10 10 15 9 29 -10z"/>
<path d="M2000 1110 c-8 -5 -13 -10 -10 -11 3 0 13 -2 22 -4 11 -2 15 2 11 11
-6 16 -4 16 -23 4z"/>
<path d="M1563 1203 c-7 -2 -13 -15 -13 -27 0 -30 42 -51 71 -35 18 9 20 8 17
-8 -3 -13 -11 -17 -32 -15 -17 2 -25 -1 -21 -7 9 -16 51 -13 65 4 16 19 5 50
-27 75 -26 20 -37 23 -60 13z m52 -33 c0 -22 -39 -19 -43 3 -3 15 1 18 20 15
12 -2 23 -10 23 -18z"/>
<path d="M257 803 c-4 -3 -7 -11 -7 -17 0 -6 5 -4 10 4 8 13 10 12 10 -4 0
-12 5 -16 16 -12 8 3 12 2 9 -4 -3 -6 -1 -10 4 -10 6 0 11 9 11 21 0 11 -4 17
-10 14 -6 -4 -17 -2 -24 4 -7 6 -16 8 -19 4z"/>
<path d="M331 764 c0 -11 3 -14 6 -6 3 7 2 16 -1 19 -3 4 -6 -2 -5 -13z"/>
<path d="M2773 813 c9 -2 23 -2 30 0 6 3 -1 5 -18 5 -16 0 -22 -2 -12 -5z"/>
<path d="M2837 644 c7 -3 9 -13 6 -22 -4 -15 -3 -15 6 -2 9 13 11 12 12 -5 0
-11 3 -14 6 -7 6 15 -14 42 -31 41 -7 0 -7 -2 1 -5z"/>
<path d="M2775 411 c6 -11 45 -10 45 1 0 4 -12 8 -26 8 -14 0 -23 -4 -19 -9z"/>
<path d="M3783 2283 c43 -2 110 -2 150 0 40 1 5 3 -78 3 -82 0 -115 -2 -72 -3z"/>
<path d="M2311 1834 c0 -11 3 -14 6 -6 3 7 2 16 -1 19 -3 4 -6 -2 -5 -13z"/>
<path d="M2316 1785 c-3 -8 -1 -15 4 -15 6 0 10 7 10 15 0 8 -2 15 -4 15 -2 0
-6 -7 -10 -15z"/>
<path d="M101 1145 c1 -40 1 -40 11 -12 7 21 7 32 -1 40 -8 8 -11 0 -10 -28z"/>
<path d="M126 1132 c-9 -8 14 -32 30 -32 21 0 17 27 -5 33 -11 3 -22 2 -25 -1z"/>
<path d="M2178 83 c6 -2 18 -2 25 0 6 3 1 5 -13 5 -14 0 -19 -2 -12 -5z"/>
</g>
</svg>
