<?xml version="1.0" standalone="no"?>
<!DOCTYPE svg PUBLIC "-//W3C//DTD SVG 20010904//EN"
 "http://www.w3.org/TR/2001/REC-SVG-20010904/DTD/svg10.dtd">
<svg version="1.0" xmlns="http://www.w3.org/2000/svg"
 width="460.000000pt" height="460.000000pt" viewBox="0 0 460.000000 460.000000"
 preserveAspectRatio="xMidYMid meet">
<metadata>
Created by potrace 1.14, written by Peter Selinger 2001-2017
</metadata>
<g transform="translate(0.000000,460.000000) scale(0.100000,-0.100000)"
fill="#000000" stroke="none">
<path d="M0 2540 c0 -1258 4 -2060 9 -2060 5 0 12 8 15 18 2 9 4 6 3 -8 -2
-14 -8 -24 -15 -23 -15 4 -17 -113 -2 -122 6 -3 11 4 12 17 3 53 26 128 48
159 10 14 32 58 49 99 30 69 30 73 14 87 -16 13 -16 14 -1 9 21 -6 50 36 42
61 -4 13 -3 14 3 5 14 -19 35 8 23 28 -13 20 -12 30 0 30 6 0 10 -7 10 -16 0
-14 3 -14 15 -4 18 15 20 50 3 50 -8 0 -6 4 3 10 25 14 33 58 14 76 -12 13
-19 14 -30 4 -12 -10 -15 -10 -15 2 0 11 11 14 45 13 37 -2 45 0 45 15 0 10 7
23 15 30 23 19 18 30 -14 30 -29 0 -68 30 -40 30 9 1 6 8 -9 19 -12 11 -22 27
-22 36 0 15 7 17 45 13 34 -4 45 -2 45 8 0 16 16 19 24 5 4 -5 1 -11 -6 -13
-7 -3 -2 -7 10 -10 20 -6 22 -2 23 35 1 68 17 92 18 28 1 -30 3 -52 6 -49 3 3
14 37 24 76 10 39 26 79 36 89 10 9 25 33 34 53 9 19 29 54 44 77 15 24 27 46
27 49 0 4 17 28 38 53 34 42 37 51 39 116 3 113 6 144 15 139 4 -3 9 21 10 53
1 53 11 -52 17 -192 2 -38 3 -39 13 -15 6 14 13 36 15 50 2 14 11 30 19 37 8
6 15 14 14 17 -1 4 1 12 3 19 3 7 6 6 6 -4 1 -20 20 -29 43 -20 15 5 15 10 -5
51 -18 37 -22 63 -21 145 0 96 1 103 39 175 58 112 137 210 169 210 7 0 40
-10 75 -21 l63 -21 46 45 c26 25 63 54 82 64 27 15 38 30 47 64 11 38 21 50
68 78 41 25 54 38 50 50 -29 74 -30 101 -5 174 34 102 63 159 107 203 34 36
72 90 146 208 16 25 30 57 31 70 1 14 13 35 27 46 l24 21 -30 -6 c-29 -6 -29
-6 -10 9 19 16 19 16 -7 10 -15 -3 -34 -2 -42 3 -12 6 2 12 48 19 60 9 63 8
55 -8 -7 -13 -6 -18 3 -18 7 -1 1 -11 -13 -23 -19 -16 -27 -32 -27 -57 0 -18
-5 -43 -10 -55 -6 -11 -15 -40 -22 -65 -6 -25 -20 -54 -30 -65 -10 -11 -26
-39 -35 -62 -10 -24 -21 -44 -26 -44 -19 -3 -25 -5 -40 -14 -9 -6 -27 -32 -39
-60 -12 -27 -26 -57 -30 -65 -5 -9 -2 -30 7 -50 17 -40 28 -230 13 -230 -8 0
-15 29 -23 90 -1 8 -13 -9 -26 -37 -17 -35 -35 -56 -57 -67 -25 -11 -41 -33
-70 -90 -33 -69 -40 -76 -66 -76 -35 0 -75 -20 -106 -54 -22 -24 -23 -26 -5
-32 48 -15 73 -27 69 -31 -3 -3 -31 4 -63 15 -73 25 -126 35 -118 22 3 -5 -10
-7 -32 -4 l-38 5 30 -14 c18 -8 30 -21 30 -33 0 -13 8 -20 25 -22 14 -2 31
-12 38 -22 11 -19 9 -20 -38 -20 -36 0 -52 4 -56 15 -4 8 -10 15 -15 15 -14 0
2 -52 23 -74 26 -29 22 -39 -9 -23 -16 8 -40 17 -55 21 -16 3 -28 11 -28 16 0
6 -4 10 -10 10 -18 0 -10 -46 13 -78 13 -17 32 -49 41 -70 13 -29 26 -42 52
-50 42 -13 50 -2 28 40 -10 21 -11 28 -3 21 7 -7 21 -13 31 -13 25 0 23 -25
-7 -76 -25 -43 -89 -95 -133 -109 -13 -4 -66 -50 -118 -102 -67 -69 -102 -114
-124 -160 -17 -36 -30 -67 -27 -69 2 -2 21 8 43 24 56 40 194 114 205 110 6
-2 -21 -19 -58 -38 -113 -57 -199 -119 -286 -205 l-50 -50 34 46 c19 26 46 62
60 80 15 19 29 47 33 63 7 27 4 25 -26 -15 -19 -24 -51 -73 -73 -109 -21 -36
-46 -74 -55 -85 -29 -35 -34 -51 -9 -29 13 12 29 20 35 17 7 -2 26 13 43 33
17 21 33 36 36 33 3 -3 -15 -27 -40 -52 -60 -63 -57 -69 5 -15 54 46 145 108
195 132 17 8 46 24 65 35 44 25 157 76 190 85 21 6 20 4 -7 -13 -69 -44 -26
-68 56 -31 35 16 42 24 38 40 -7 26 19 27 33 1 14 -28 14 -29 -22 -51 -18 -11
-29 -20 -24 -20 5 0 3 -7 -4 -15 -7 -8 -9 -15 -5 -15 13 0 -48 -53 -84 -73
-24 -14 -35 -16 -45 -7 -11 8 -15 8 -18 -1 -2 -7 -14 -13 -25 -14 -14 -1 -19
3 -16 12 3 7 0 13 -6 13 -6 0 -11 -6 -11 -12 0 -9 -3 -10 -8 -2 -9 14 -52 25
-52 12 0 -5 -4 -6 -10 -3 -5 3 -10 1 -10 -4 0 -6 -15 -11 -32 -11 -28 0 -37
-7 -60 -43 -32 -48 -38 -29 -7 22 24 39 19 49 -16 33 -19 -9 -25 -19 -25 -42
0 -19 -5 -30 -14 -30 -8 0 -21 -6 -29 -14 -8 -8 -29 -24 -48 -35 -19 -12 -29
-21 -23 -21 15 0 13 -31 -4 -49 -7 -7 -10 -21 -8 -30 7 -19 -3 -35 -26 -44 -9
-3 -31 -30 -48 -59 -31 -55 -45 -98 -75 -230 -9 -43 -21 -78 -26 -78 -6 0 -16
-14 -23 -31 l-13 -31 -6 29 c-6 33 1 73 13 73 19 0 58 87 57 130 0 25 -2 38
-5 30 -3 -8 -9 -23 -14 -34 -7 -13 -7 -16 1 -12 15 10 14 5 -14 -56 -32 -68
-32 -35 0 61 14 41 23 76 21 79 -8 7 -25 -34 -45 -109 -24 -87 -60 -181 -61
-158 0 9 7 36 15 59 8 23 15 50 15 59 -1 29 -16 -8 -40 -96 -12 -45 -27 -81
-33 -80 -6 1 -19 -20 -29 -46 -10 -27 -14 -45 -8 -42 5 3 10 -1 10 -9 0 -8 -9
-20 -20 -26 -11 -6 -20 -15 -20 -21 0 -6 4 -7 10 -4 5 3 10 -1 10 -10 0 -21
-31 -117 -37 -112 -2 3 3 24 11 48 16 47 12 65 -9 36 -19 -27 -29 -88 -15 -97
8 -5 6 -9 -5 -14 -14 -5 -15 -9 -5 -21 10 -12 8 -16 -11 -24 -14 -5 -25 -5
-27 0 -4 9 22 96 38 134 5 11 16 43 23 71 18 60 51 145 78 196 22 42 23 48 9
48 -13 0 -71 -125 -107 -230 -15 -41 -29 -79 -33 -85 -4 -5 -13 -28 -19 -50
-7 -22 -19 -63 -28 -92 -18 -57 -13 -74 17 -55 18 11 19 10 10 -14 -6 -14 -17
-32 -25 -40 -11 -11 -15 -38 -15 -95 l0 -79 1052 0 c1018 0 1051 1 1035 18
-10 10 -17 23 -17 29 0 5 -9 18 -19 27 -11 10 -23 32 -27 49 -7 35 -50 107
-63 107 -5 0 -34 26 -66 57 -52 52 -111 97 -171 131 -12 7 -31 27 -41 45 -13
21 -40 42 -79 61 -32 16 -78 44 -101 62 -23 19 -45 34 -50 34 -5 0 -20 11 -33
24 -12 14 -43 35 -69 46 -25 12 -56 31 -68 42 -17 16 -35 21 -80 20 l-58 0 35
13 c62 24 87 18 166 -37 41 -28 74 -55 74 -60 0 -4 24 -21 53 -38 28 -16 58
-38 65 -50 7 -11 18 -20 26 -20 34 0 126 -51 140 -77 18 -33 109 -113 129
-113 8 0 31 -21 52 -46 21 -25 55 -56 76 -70 22 -13 41 -35 45 -49 3 -14 15
-30 25 -36 11 -5 19 -20 19 -35 0 -13 16 -49 36 -79 l37 -55 248 0 c188 0 249
3 252 13 4 9 6 9 6 0 1 -10 31 -13 116 -13 l115 0 -1 123 c0 67 -4 142 -8 167
-6 30 -7 0 -5 -85 2 -72 1 -123 -1 -115 -9 27 -20 300 -13 300 5 0 7 21 6 48
l-1 47 -8 -45 c-5 -28 -6 -3 -3 65 7 155 27 233 75 297 l39 52 -34 21 c-77 46
-218 218 -230 280 -6 26 -5 27 3 8 15 -33 100 -28 102 6 0 14 1 14 7 1 16 -35
27 -15 25 46 -1 35 2 66 8 69 5 4 7 11 3 16 -11 18 29 39 61 33 17 -4 32 -10
35 -14 3 -4 16 -10 30 -14 19 -6 21 -5 10 3 -12 9 -10 11 12 11 15 0 29 -4 33
-10 5 -9 66 -5 89 6 6 3 3 -1 -7 -9 -14 -11 -15 -17 -5 -25 34 -28 41 -19 39
50 -2 65 -2 66 26 72 40 9 123 5 123 -5 0 -5 17 -9 38 -9 49 0 55 -7 31 -31
-10 -10 -17 -24 -15 -31 1 -7 1 -10 -1 -5 -6 9 -33 9 -32 -1 1 -4 1 -16 0 -27
-1 -15 -3 -17 -10 -7 -7 11 -9 11 -14 -2 -4 -10 -1 -16 8 -16 8 0 15 -5 15
-11 0 -5 -4 -7 -10 -4 -5 3 -20 -3 -32 -15 -13 -12 -29 -18 -38 -14 -23 10
-70 12 -64 2 3 -4 16 -8 30 -8 13 0 24 -5 24 -11 0 -7 -10 -9 -25 -5 -24 6
-25 5 -13 -15 17 -28 78 -89 89 -89 4 0 5 -7 2 -17 -4 -9 -2 -14 3 -10 6 3 16
2 24 -3 9 -5 19 -5 27 2 10 8 13 4 13 -16 0 -16 9 -31 25 -42 14 -9 28 -27 31
-40 3 -13 14 -24 23 -24 14 0 14 -2 1 -11 -12 -9 -11 -10 8 -6 15 4 22 0 22
-10 0 -9 -6 -13 -15 -9 -13 5 -14 2 -3 -17 7 -12 11 -26 10 -30 -1 -5 2 -6 7
-3 5 4 12 2 16 -4 3 -5 -3 -10 -14 -10 -22 0 -28 -14 -11 -25 6 -3 10 -14 10
-23 0 -15 -2 -15 -10 -2 -5 8 -10 10 -10 4 0 -6 11 -20 25 -32 14 -12 25 -27
25 -33 0 -5 5 -7 10 -4 6 4 10 -6 10 -22 l1 -28 14 26 c7 14 12 44 11 67 -3
38 -1 41 20 40 13 -1 25 -6 25 -10 3 -20 5 -24 13 -37 6 -10 5 -12 -2 -7 -7 4
-12 2 -12 -3 0 -6 9 -11 20 -11 18 0 19 -3 10 -20 -9 -17 -8 -20 10 -20 11 0
20 -4 20 -10 0 -5 -7 -10 -15 -10 -8 0 -15 -4 -15 -10 0 -5 6 -9 13 -7 6 1 11
-6 11 -16 -1 -11 4 -16 14 -15 8 2 17 -3 20 -11 2 -8 0 -11 -6 -8 -5 4 -15 0
-22 -8 -7 -8 -9 -16 -4 -17 5 0 14 -2 19 -3 6 -2 25 -3 44 -4 29 -1 32 -3 21
-16 -10 -12 -16 -13 -28 -3 -13 11 -15 10 -9 -5 4 -10 7 -21 7 -23 0 -3 4 -3
9 1 5 3 16 -4 25 -16 8 -12 19 -18 25 -14 6 3 11 1 11 -4 0 -6 -7 -11 -15 -11
-9 0 -18 -7 -21 -15 -7 -18 -31 -20 -36 -3 -3 9 -8 6 -15 -7 -8 -15 -7 -23 3
-33 11 -10 14 -10 14 0 1 8 6 5 15 -6 14 -18 15 -18 30 17 16 39 29 49 23 20
-2 -10 8 -28 22 -41 22 -21 23 -25 8 -33 -10 -5 -15 -16 -12 -24 4 -8 1 -15
-6 -15 -9 0 -9 -4 -2 -13 6 -7 9 -22 7 -32 -2 -11 -4 -28 -4 -37 -2 -37 -21
-16 -21 22 0 25 -5 40 -12 40 -9 0 -10 2 -2 8 6 4 15 18 19 31 7 24 6 24 -40
18 -53 -8 -73 -20 -86 -53 -5 -14 -18 -24 -35 -26 -15 -2 -29 -9 -31 -15 -3
-9 8 -11 41 -8 27 3 46 1 46 -5 0 -6 -5 -10 -11 -10 -8 0 -8 -4 -1 -12 13 -17
9 -61 -7 -66 -8 -3 -10 4 -5 24 6 24 5 26 -8 14 -15 -15 -13 -50 4 -61 6 -3 2
-9 -7 -12 -9 -4 -13 -3 -10 3 3 6 1 10 -4 10 -6 0 -11 -9 -11 -21 0 -13 -4
-18 -12 -13 -6 4 -9 3 -5 -2 8 -14 -15 -40 -44 -47 -14 -4 -26 -14 -26 -22 0
-11 6 -14 16 -9 9 4 31 9 49 12 27 4 32 1 32 -17 0 -12 6 -21 14 -21 8 0 17
-6 19 -12 4 -10 6 -10 6 0 1 6 7 12 15 12 8 0 13 -8 12 -18 -1 -15 11 -17 107
-20 102 -3 107 -2 107 18 0 14 7 20 23 21 12 0 46 2 75 4 29 1 55 -1 58 -6 3
-5 -18 -10 -45 -10 -70 -2 -74 -3 -78 -14 -4 -14 94 -18 102 -5 3 6 19 10 36
10 16 0 29 5 29 11 0 5 5 7 11 4 6 -5 4 -12 -8 -20 -15 -12 26 -14 265 -15
l282 -1 0 2301 0 2300 -2300 0 -2300 0 0 -2060z m2375 1880 c-10 -11 -22 -20
-28 -20 -5 0 1 9 14 20 31 25 37 25 14 0z m58 13 c-7 -2 -19 -2 -25 0 -7 3 -2
5 12 5 14 0 19 -2 13 -5z m-193 -147 c0 -2 -8 -10 -17 -17 -16 -13 -17 -12 -4
4 13 16 21 21 21 13z m-153 -141 c0 -8 -4 -12 -9 -9 -4 3 -8 9 -8 15 0 5 4 9
8 9 5 0 9 -7 9 -15z m-64 -15 c3 -11 1 -18 -4 -14 -5 3 -9 12 -9 20 0 20 7 17
13 -6z m1166 -67 c7 -14 9 -28 6 -31 -3 -3 -5 0 -5 6 0 14 -28 42 -44 42 -7 0
-29 -15 -49 -34 -20 -18 -37 -30 -37 -26 0 4 18 24 39 43 45 40 72 40 90 0z
m-1170 13 c10 -12 8 -13 -9 -9 -25 7 -37 23 -17 23 8 0 20 -6 26 -14z m489
-51 c-3 -3 -9 2 -12 12 -6 14 -5 15 5 6 7 -7 10 -15 7 -18z m494 -107 c-26
-35 -55 -71 -64 -80 -10 -10 -18 -22 -18 -28 0 -5 -3 -9 -7 -8 -5 2 -28 -17
-52 -40 -31 -31 -46 -41 -54 -33 -8 8 -8 14 1 23 9 9 12 9 12 -1 0 -11 3 -11
15 -1 8 7 12 17 8 24 -3 6 -3 8 1 5 10 -10 71 47 129 121 45 57 66 79 74 80 2
0 -19 -28 -45 -62z m-1096 14 c-4 -3 -14 2 -24 12 -16 18 -16 18 6 6 13 -6 21
-14 18 -18z m591 -39 c-3 -10 -5 -2 -5 17 0 19 2 27 5 18 2 -10 2 -26 0 -35z
m-573 12 c11 -8 15 -15 10 -15 -6 0 -19 7 -30 15 -10 8 -14 14 -9 14 6 0 19
-6 29 -14z m-4 -41 c0 -2 -9 0 -20 6 -11 6 -20 13 -20 16 0 2 9 0 20 -6 11 -6
20 -13 20 -16z m607 -6 c-3 -7 -5 -2 -5 12 0 14 2 19 5 13 2 -7 2 -19 0 -25z
m-631 -25 c-6 -6 -66 29 -66 38 0 5 15 -1 34 -13 19 -13 33 -24 32 -25z m675
0 c-12 -20 -14 -14 -5 12 4 9 9 14 11 11 3 -2 0 -13 -6 -23z m-780 -2 c14 -11
36 -18 54 -16 16 1 20 0 8 -2 -19 -4 -21 -7 -12 -24 9 -18 8 -19 -18 -13 -33
8 -73 33 -73 45 0 5 8 6 18 3 14 -5 14 -3 -2 10 -11 9 -15 16 -9 16 6 0 21 -9
34 -19z m746 -23 c-3 -8 -6 -5 -6 6 -1 11 2 17 5 13 3 -3 4 -12 1 -19z m14
-21 c-10 -9 -11 -8 -5 6 3 10 9 15 12 12 3 -3 0 -11 -7 -18z m67 -47 c-15 -24
-22 -19 -13 9 3 12 11 19 16 16 5 -4 3 -14 -3 -25z m367 20 c-3 -5 -11 -10
-16 -10 -6 0 -7 5 -4 10 3 6 11 10 16 10 6 0 7 -4 4 -10z m-1185 -20 c0 -5 -2
-10 -4 -10 -3 0 -8 5 -11 10 -3 6 -1 10 4 10 6 0 11 -4 11 -10z m973 -48 c-11
-14 -26 -27 -34 -30 -9 -2 -10 -1 -3 5 6 4 19 23 30 41 10 18 20 28 23 21 2
-6 -5 -23 -16 -37z m-1003 28 c8 -5 11 -10 5 -10 -5 0 -3 -5 5 -10 11 -7 11
-10 2 -10 -7 0 -11 -4 -7 -9 13 -23 -12 -15 -37 11 l-27 28 27 -6 c21 -4 24
-3 12 5 -19 13 0 14 20 1z m873 -7 c-6 -16 -5 -17 12 -3 19 16 19 14 -4 -32
-15 -30 -35 -39 -24 -11 5 12 2 15 -9 10 -26 -10 -30 5 -6 30 26 27 40 30 31
6z m-942 -32 c28 -16 46 -31 41 -35 -8 -5 -102 50 -102 60 0 8 12 3 61 -25z
m-44 -37 c-3 -3 -12 -4 -19 -1 -8 3 -5 6 6 6 11 1 17 -2 13 -5z m1063 -4 c14
-4 23 -8 20 -9 -3 -1 -19 -5 -37 -10 -27 -8 -32 -6 -36 10 -6 21 9 23 53 9z
m260 -19 c-11 -21 -30 -37 -30 -25 0 8 30 44 37 44 2 0 -1 -9 -7 -19z m-320
-15 c0 -7 18 -25 40 -40 46 -30 58 -33 39 -9 -13 17 -13 17 13 0 15 -9 29 -13
33 -8 3 6 -3 14 -12 20 -33 19 10 13 68 -10 105 -42 124 -52 174 -102 27 -27
64 -56 82 -63 35 -15 147 -126 168 -167 12 -24 30 -46 71 -90 27 -28 65 -103
57 -111 -3 -3 -11 4 -18 17 -6 12 -17 21 -24 19 -7 -1 -10 2 -6 8 3 5 1 10 -5
10 -6 0 -8 4 -5 10 7 11 -83 106 -97 102 -4 -1 -8 2 -8 7 0 15 -63 81 -76 81
-7 0 -18 8 -23 18 -18 29 -12 3 19 -95 17 -51 30 -102 30 -114 0 -62 118 -210
178 -224 68 -17 93 -24 136 -43 27 -12 55 -22 62 -22 8 0 54 -18 103 -40 49
-22 93 -40 97 -40 5 0 27 -15 49 -32 22 -17 33 -28 25 -26 -70 24 -220 34
-220 16 0 -5 -11 -8 -25 -8 -25 0 -25 1 -9 25 9 14 21 25 28 25 6 0 4 -5 -4
-10 -24 -16 -6 -11 31 7 l34 18 -50 6 c-27 4 -66 10 -86 13 -20 2 -60 12 -88
22 -28 9 -60 14 -71 11 -12 -3 -20 0 -20 8 0 13 -42 25 -86 25 -33 0 -21 28
14 33 20 3 18 4 -11 6 -41 1 -68 -9 -107 -43 l-25 -21 19 23 c24 28 7 29 -30
0 l-29 -22 30 34 c28 31 28 32 8 27 -13 -3 -23 -1 -23 4 0 4 -7 6 -15 3 -22
-9 -18 9 5 24 16 10 20 10 20 0 0 -10 2 -10 8 0 5 7 16 10 27 6 13 -5 16 -3
13 7 -8 25 -36 21 -83 -11 -28 -19 -42 -25 -39 -15 8 19 84 65 109 65 17 0 17
2 -3 23 -12 12 -20 32 -20 43 2 21 3 21 34 -4 18 -14 38 -36 45 -49 7 -13 17
-23 22 -23 6 0 2 9 -7 19 -21 23 -106 189 -106 207 0 29 -61 139 -90 160 -8 7
-26 21 -39 33 -13 12 -27 21 -31 21 -3 0 -24 16 -45 35 -22 19 -41 32 -44 30
-2 -3 -11 1 -19 8 -13 9 -14 9 -8 0 5 -9 2 -11 -8 -7 -9 3 -16 10 -16 15 0 4
-7 6 -15 3 -8 -3 -28 4 -44 15 -16 12 -36 18 -45 15 -9 -3 -16 -2 -16 4 0 5
-14 15 -31 22 -21 9 -26 15 -18 21 9 5 5 11 -14 20 -14 6 -24 16 -21 20 3 5 0
9 -5 9 -20 0 -11 31 12 39 25 10 37 6 37 -13z m-956 -11 c-4 -10 -14 -13 -33
-8 -62 15 -66 22 -14 22 43 1 51 -2 47 -14z m860 -25 c14 -5 26 -15 25 -22 0
-10 -2 -10 -6 0 -8 20 -77 14 -150 -13 -37 -13 -69 -23 -70 -21 -5 5 96 48
132 57 42 10 41 10 69 -1z m-897 -16 c-3 -3 -12 -4 -19 -1 -8 3 -5 6 6 6 11 1
17 -2 13 -5z m-12 -24 l30 -8 -35 -1 c-19 0 -42 4 -50 9 -12 8 -11 10 5 9 11
-1 34 -5 50 -9z m-11 -34 c15 -7 28 -18 29 -22 1 -5 6 -8 10 -6 5 1 6 -6 2
-17 -4 -14 0 -21 14 -26 12 -3 26 -3 32 1 7 4 10 1 7 -7 -3 -8 -12 -12 -19
-10 -8 1 -40 5 -72 8 -58 6 -62 23 -4 23 35 0 34 11 -3 32 -17 9 -30 22 -30
28 0 13 2 13 34 -4z m813 -49 c4 -6 -9 -1 -29 11 -19 12 -44 22 -54 22 -15 0
-16 2 -5 9 14 9 74 -20 88 -42z m693 16 c-8 -3 -20 -9 -25 -14 -6 -4 -21 -1
-35 6 -24 14 -23 14 25 14 28 0 43 -3 35 -6z m-2 -43 c-7 -10 -14 -17 -17 -15
-4 4 18 35 25 35 2 0 -1 -9 -8 -20z m-1463 -20 c3 -5 -3 -10 -15 -10 -12 0
-18 5 -15 10 3 6 10 10 15 10 5 0 12 -4 15 -10z m630 -12 c6 -12 25 -32 43
-44 18 -13 28 -25 23 -28 -7 -5 -58 31 -100 69 -5 5 9 25 17 25 4 0 12 -10 17
-22z m-610 -18 c-11 -5 -29 -9 -40 -9 l-20 0 20 9 c11 5 29 9 40 9 l20 0 -20
-9z m1210 -9 c3 -5 2 -12 -3 -15 -5 -3 -9 1 -9 9 0 17 3 19 12 6z m-1166 -176
c-5 -55 -13 -161 -17 -235 l-9 -135 -1 120 c-2 107 7 224 24 324 10 62 12 27
3 -74z m1231 -345 c11 -11 20 -26 20 -32 0 -7 -7 -3 -15 9 -9 13 -23 27 -33
32 -10 6 -12 11 -4 11 6 0 21 -9 32 -20z m-643 -72 c-2 -26 -6 -33 -22 -33
-15 0 -21 8 -23 33 -3 28 0 32 21 32 22 0 25 -4 24 -32z m133 2 c0 -25 -4 -30
-25 -30 -21 0 -25 5 -25 30 0 25 4 30 25 30 21 0 25 -5 25 -30z m140 0 c0 -25
-4 -30 -25 -30 -21 0 -25 5 -25 30 0 25 4 30 25 30 21 0 25 -5 25 -30z m142
25 c3 -3 3 -17 0 -30 -3 -18 -11 -25 -28 -25 -20 0 -24 5 -24 30 0 25 4 30 23
30 13 0 26 -2 29 -5z m138 -25 c0 -25 -4 -30 -25 -30 -21 0 -25 5 -25 30 0 25
4 30 25 30 21 0 25 -5 25 -30z m-2445 -140 c55 -16 130 -34 168 -41 l67 -12 0
-34 c0 -22 -4 -32 -11 -28 -6 4 -8 13 -5 21 3 8 -1 14 -9 14 -8 0 -15 -8 -15
-17 -1 -14 -4 -13 -14 6 -13 23 -13 23 -19 2 -3 -11 -2 -19 2 -17 4 3 12 -4
19 -15 8 -12 8 -19 2 -20 -14 -2 -22 -5 -42 -13 -12 -5 -31 0 -55 14 -21 12
-58 24 -83 25 -94 5 -86 3 -64 21 10 8 14 13 8 10 -7 -3 -27 -1 -45 5 -19 6
-40 13 -48 15 -10 3 -11 8 -3 16 6 6 8 17 5 24 -3 8 0 14 6 14 6 0 11 5 11 11
0 5 -4 8 -9 5 -5 -3 -11 2 -13 12 -6 23 7 21 147 -18z m3851 3 c-7 -7 -26 7
-26 19 0 6 6 6 15 -2 9 -7 13 -15 11 -17z m25 -30 c13 -16 12 -17 -3 -4 -10 7
-18 15 -18 17 0 8 8 3 21 -13z m-536 -83 c3 -5 1 -10 -4 -10 -6 0 -11 5 -11
10 0 6 2 10 4 10 3 0 8 -4 11 -10z m-28 -88 c-10 -10 -15 -21 -13 -23 2 -2 1
-24 -4 -49 -7 -39 -5 -48 13 -70 21 -23 21 -24 1 -7 -24 20 -36 22 -32 4 2 -7
-12 -36 -31 -66 l-34 -53 39 -35 c21 -19 26 -25 10 -14 -35 26 -53 27 -35 4
13 -16 12 -17 -3 -4 -10 7 -15 18 -11 25 7 12 -26 -11 -42 -29 -16 -19 -114
-85 -125 -85 -5 0 -10 -3 -10 -7 0 -14 -93 -20 -153 -11 -20 3 -40 2 -43 -4
-3 -5 -11 -4 -20 3 -10 8 -22 8 -45 0 -44 -15 -46 -14 -19 11 20 19 36 22 93
23 38 0 71 -4 74 -8 3 -4 10 -4 16 0 7 5 26 10 42 11 51 5 98 23 135 51 19 15
45 33 57 39 12 7 25 22 29 34 4 13 19 41 34 63 23 34 39 87 46 158 1 16 31 57
42 57 3 0 -2 -8 -11 -18z m466 -77 c-3 -9 -8 -14 -10 -11 -3 3 -2 9 2 15 9 16
15 13 8 -4z m-514 -318 c-2 -3 -15 10 -28 27 l-24 31 28 -27 c16 -15 27 -29
24 -31z m-693 -20 l-29 -24 84 3 c57 2 86 0 91 -9 14 -22 8 -31 -7 -11 -14 19
-14 19 -15 -1 -1 -11 -4 -15 -6 -8 -4 9 -23 10 -74 0 -3 0 -23 5 -45 11 -27 8
-41 8 -44 1 -1 -5 -12 -19 -23 -29 -12 -11 -17 -23 -12 -31 5 -9 2 -10 -10 -6
-14 6 -15 3 -6 -16 10 -20 9 -20 -11 3 -12 14 -25 24 -28 23 -4 -1 -7 7 -8 18
-2 17 0 18 21 4 22 -15 24 -14 29 13 4 21 18 35 54 55 61 32 77 34 39 4z
m-123 -139 c15 -26 15 -29 2 -18 -20 16 -39 50 -28 50 4 0 16 -14 26 -32z
m-44 -4 c14 -12 -19 -1 -35 12 -18 14 -18 14 6 3 14 -6 27 -13 29 -15z m27
-29 c-2 -7 1 -18 7 -24 8 -8 8 -11 -1 -11 -7 0 -12 3 -13 8 0 4 -2 17 -5 30
-3 15 0 21 7 17 6 -4 8 -13 5 -20z m-36 -12 c0 -11 -4 -11 -20 -3 -11 6 -20
15 -20 19 0 5 9 7 20 4 11 -3 20 -12 20 -20z m-42 -48 c26 -30 26 -32 7 -32
-8 0 -27 13 -42 29 -25 26 -25 28 -7 28 11 0 30 -11 42 -25z m-3 -90 c6 -27 5
-26 -14 10 -25 46 -26 55 -7 35 8 -8 18 -28 21 -45z m-61 0 c-4 11 -5 18 -3
15 33 -39 42 -52 32 -47 -6 4 -14 1 -16 -5 -4 -10 -8 -9 -16 2 -8 12 -11 12
-11 1 0 -8 -7 -4 -19 10 -10 12 -16 31 -13 41 4 16 7 15 29 -9 18 -21 22 -23
17 -8z m917 -60 c60 -62 80 -96 28 -50 -50 45 -99 95 -99 100 0 15 24 -1 71
-50z m-678 20 c29 4 29 4 7 -4 -41 -15 -50 -12 -49 12 1 16 3 17 6 5 3 -13 12
-16 36 -13z m70 8 c-7 -2 -19 -2 -25 0 -7 3 -2 5 12 5 14 0 19 -2 13 -5z
m-1986 -9 c-3 -3 -12 -4 -19 -1 -8 3 -5 6 6 6 11 1 17 -2 13 -5z m1767 -36 c7
-5 5 -8 -6 -8 -13 0 -18 7 -17 28 1 21 2 22 6 7 3 -11 10 -23 17 -27z m-1843
11 c-25 -11 -52 -18 -60 -17 -9 2 7 11 34 20 67 23 80 21 26 -3z m2249 18 c0
-2 -10 -12 -22 -23 l-23 -19 19 23 c18 21 26 27 26 19z m-330 -17 c-14 -4 -34
-8 -45 -8 l-20 -1 20 9 c11 5 31 8 45 8 l25 0 -25 -8z m-1831 -23 c-7 -6 -157
-57 -166 -57 -11 1 48 27 112 50 42 16 69 19 54 7z m-544 -7 c4 -6 11 -8 16
-5 5 4 9 -1 9 -9 0 -9 -7 -16 -15 -16 -8 0 -15 -8 -15 -18 0 -10 -5 -23 -12
-30 -9 -9 -9 -12 3 -12 7 0 3 -6 -11 -13 -14 -7 -25 -18 -25 -24 0 -24 -12
-22 -25 5 -8 15 -24 41 -35 57 -26 36 -36 61 -28 69 11 10 131 7 138 -4z
m2395 0 c0 -5 -19 -9 -42 -9 l-43 2 35 7 c19 4 38 8 43 9 4 0 7 -3 7 -9z m35
0 c3 -5 1 -10 -4 -10 -6 0 -11 5 -11 10 0 6 2 10 4 10 3 0 8 -4 11 -10z m225
5 c0 -2 -10 -9 -22 -15 -22 -11 -22 -10 -4 4 21 17 26 19 26 11z m-2613 -27
c-3 -8 -6 -5 -6 6 -1 11 2 17 5 13 3 -3 4 -12 1 -19z m2110 -15 c0 -6 -4 -10
-8 -7 -4 2 -9 -1 -11 -7 -2 -7 -9 -5 -17 5 -12 14 -12 16 4 10 14 -6 16 -3 10
16 -6 20 -5 21 7 9 8 -7 15 -19 15 -26z m386 30 c-18 -2 -48 -2 -65 0 -18 2
-4 4 32 4 36 0 50 -2 33 -4z m62 -23 c-3 -5 -14 -10 -23 -9 -14 0 -13 2 3 9
27 11 27 11 20 0z m-222 -17 c-7 -2 -21 -2 -30 0 -10 3 -4 5 12 5 17 0 24 -2
18 -5z m135 0 c-21 -2 -55 -2 -75 0 -21 2 -4 4 37 4 41 0 58 -2 38 -4z m1157
-13 c9 -15 -25 -60 -59 -75 -17 -8 -41 -22 -53 -31 -21 -15 -23 -15 -23 0 0
10 5 14 10 11 6 -3 10 2 10 12 0 15 2 16 10 3 9 -13 14 -7 11 12 0 4 5 5 13 2
7 -3 16 2 20 11 3 9 9 14 13 12 5 -2 17 4 28 15 20 19 20 20 -10 12 -16 -3
-47 -12 -67 -19 -30 -10 -38 -10 -38 0 0 26 121 58 135 35z m-3368 -30 c-26
-16 -50 -30 -54 -30 -3 0 -27 -15 -52 -34 -64 -45 -91 -59 -91 -46 0 5 7 10
15 10 8 0 29 12 47 28 18 15 53 38 78 51 25 13 54 30 65 38 11 7 24 13 29 13
6 0 -11 -13 -37 -30z m1827 -19 c-6 -7 -44 31 -44 43 0 6 11 -1 24 -14 13 -14
22 -27 20 -29z m267 18 c-5 -13 -22 -35 -37 -49 l-28 -25 26 32 c15 18 30 42
33 54 4 11 9 19 11 16 3 -2 0 -15 -5 -28z m-41 2 c-5 -11 -15 -23 -21 -27 -6
-3 -3 5 6 20 20 30 30 35 15 7z m-99 -54 c-14 -36 -1 -41 28 -11 28 29 52 32
25 3 -19 -21 -66 -49 -82 -49 -5 0 1 20 12 44 22 48 33 56 17 13z m972 26 c-7
-2 -19 -2 -25 0 -7 3 -2 5 12 5 14 0 19 -2 13 -5z m-3473 -11 c0 -13 -12 -22
-22 -16 -10 6 -1 24 13 24 5 0 9 -4 9 -8z m2375 -2 c3 -6 -1 -7 -9 -4 -18 7
-21 14 -7 14 6 0 13 -4 16 -10z m945 -7 c-8 -3 -30 -12 -47 -19 -18 -7 -33 -9
-33 -5 0 12 42 30 70 30 15 -1 19 -3 10 -6z m-800 -78 c-18 -13 -37 -26 -41
-27 -5 -2 -6 -13 -3 -25 7 -26 44 -32 44 -8 0 8 -4 15 -10 15 -5 0 -10 5 -10
11 0 5 5 7 10 4 6 -3 10 -1 10 4 0 7 16 9 42 6 46 -6 64 -15 30 -15 -11 0 -24
-5 -27 -11 -4 -6 -14 -8 -22 -5 -12 5 -14 1 -11 -19 3 -14 1 -25 -3 -25 -5 0
-10 -15 -11 -32 l-1 -33 -4 33 c-3 23 -9 32 -23 32 -13 0 -21 11 -27 37 -8 36
-8 38 32 59 55 29 66 29 25 -1z m-2191 -26 c-16 -10 -23 -4 -14 10 3 6 11 8
17 5 6 -4 5 -9 -3 -15z m2426 -39 c-3 -5 -11 -10 -16 -10 -6 0 -7 5 -4 10 3 6
11 10 16 10 6 0 7 -4 4 -10z m-2675 -12 c0 -9 4 -8 10 2 8 13 10 12 10 -2 0
-22 -33 -24 -50 -3 -10 13 -9 15 9 15 11 0 21 -6 21 -12z m2220 -41 c0 -2 -12
-14 -27 -28 l-28 -24 24 28 c23 25 31 32 31 24z m149 -21 c-12 -10 -79 -16
-79 -6 0 5 19 10 42 10 23 0 39 -2 37 -4z m558 -28 c2 -18 0 -20 -7 -8 -12 18
-13 30 -2 30 4 0 9 -10 9 -22z m-2952 2 c3 -5 -1 -10 -10 -10 -9 0 -13 5 -10
10 3 6 8 10 10 10 2 0 7 -4 10 -10z m218 -15 c-3 -9 -8 -14 -10 -11 -3 3 -2 9
2 15 9 16 15 13 8 -4z m2697 -6 c0 -11 5 -17 10 -14 15 10 12 -11 -4 -25 -8
-6 -12 -18 -9 -26 10 -27 -15 -14 -36 19 l-20 32 22 17 c29 23 37 22 37 -3z
m830 -10 c0 -5 -4 -9 -10 -9 -5 0 -10 7 -10 16 0 8 5 12 10 9 6 -3 10 -10 10
-16z m-3542 -56 c-16 -39 -32 -54 -18 -19 12 33 19 46 25 46 3 0 -1 -12 -7
-27z m3566 2 c17 -13 17 -15 4 -15 -9 0 -24 -7 -32 -16 -15 -14 -16 -13 -16
15 0 34 14 39 44 16z m-3164 -30 c0 -8 -7 -15 -15 -15 -8 0 -15 7 -15 15 0 8
7 15 15 15 8 0 15 -7 15 -15z m-143 -11 c-3 -3 -12 -4 -19 -1 -8 3 -5 6 6 6
11 1 17 -2 13 -5z m18 -52 c-3 -3 -11 0 -18 7 -9 10 -8 11 6 5 10 -3 15 -9 12
-12z m-306 -24 c-4 -51 1 -70 16 -64 10 4 19 -2 24 -16 7 -18 9 -19 14 -5 8
22 27 22 27 1 0 -9 6 -14 13 -11 13 5 77 -59 77 -77 0 -7 15 -27 34 -45 l35
-34 78 22 c44 11 85 21 92 21 15 0 67 -55 86 -92 11 -19 25 -28 54 -33 51 -8
75 -1 88 28 l10 22 12 -23 c14 -26 5 -68 -17 -77 -9 -3 -44 2 -78 11 -59 16
-84 33 -137 94 -17 20 -25 21 -126 15 l-108 -7 -39 34 c-22 20 -45 33 -51 31
-7 -3 -28 1 -47 7 -26 8 -40 22 -57 56 -14 30 -26 43 -35 40 -8 -3 -14 -1 -14
3 0 5 5 11 11 13 6 2 7 12 1 28 l-9 24 -17 -29 c-16 -28 -17 -28 -12 -5 3 14
6 35 6 48 0 15 6 22 20 22 11 0 20 5 20 10 0 6 7 10 15 10 10 0 15 -8 14 -22z
m2190 -33 c0 -5 -6 -1 -14 9 -8 11 -15 27 -15 35 1 17 29 -26 29 -44z m-1280
-17 c28 -23 49 -44 46 -46 -2 -3 -25 14 -50 37 -40 37 -50 42 -78 36 -24 -5
-28 -4 -17 4 26 18 46 12 99 -31z m-1305 0 c-9 -31 -12 -34 -26 -20 -9 9 -9
12 0 12 7 0 12 7 12 15 0 8 5 15 11 15 6 0 8 -9 3 -22z m3845 18 c-9 -9 -99
-14 -104 -5 -4 5 18 9 51 9 32 0 55 -2 53 -4z m128 -2 c-3 -3 -12 -4 -19 -1
-8 3 -5 6 6 6 11 1 17 -2 13 -5z m-3057 -14 c0 -5 -5 -10 -11 -10 -5 0 -7 5
-4 10 3 6 8 10 11 10 2 0 4 -4 4 -10z m235 0 c-27 -12 -43 -12 -25 0 8 5 22 9
30 9 10 0 8 -3 -5 -9z m1505 -30 c0 -17 -16 -11 -41 16 l-24 27 33 -17 c17 -9
32 -21 32 -26z m880 12 c0 -5 -17 -10 -37 -11 -21 -1 -49 -3 -62 -4 -13 -1
-26 4 -28 11 -4 9 13 12 61 12 36 0 66 -4 66 -8z m-2540 -15 c19 0 46 3 60 7
22 7 22 6 -4 -8 -43 -24 -136 -20 -136 6 0 6 9 7 23 3 12 -5 38 -8 57 -8z
m1567 -34 c-3 -10 -5 -2 -5 17 0 19 2 27 5 18 2 -10 2 -26 0 -35z m1146 40
c-13 -2 -35 -2 -50 0 -16 2 -5 4 22 4 28 0 40 -2 28 -4z m64 1 c-3 -3 -12 -4
-19 -1 -8 3 -5 6 6 6 11 1 17 -2 13 -5z m-3767 -24 c0 -5 -4 -10 -10 -10 -5 0
-10 5 -10 10 0 6 5 10 10 10 6 0 10 -4 10 -10z m84 1 c3 -5 -1 -14 -8 -20 -16
-13 -32 2 -21 19 8 12 22 13 29 1z m3341 -21 c7 0 16 6 18 13 4 9 6 9 6 -1 1
-7 -6 -15 -14 -18 -8 -4 -15 -14 -16 -23 0 -9 -3 -11 -5 -4 -3 7 -13 10 -22 7
-16 -5 -16 -5 0 6 9 6 16 16 14 23 -1 6 -1 9 1 5 3 -5 11 -8 18 -8z m-828 -87
c-2 -21 -4 -6 -4 32 0 39 2 55 4 38 2 -18 2 -50 0 -70z m89 83 c10 -8 17 -17
14 -19 -3 -3 -16 3 -29 14 -27 22 -15 26 15 5z m644 4 c0 -5 -7 -10 -16 -10
-8 0 -12 5 -9 10 3 6 10 10 16 10 5 0 9 -4 9 -10z m433 3 c-7 -2 -19 -2 -25 0
-7 3 -2 5 12 5 14 0 19 -2 13 -5z m-2343 -39 c0 -2 -9 0 -20 6 -11 6 -20 13
-20 16 0 2 9 0 20 -6 11 -6 20 -13 20 -16z m2360 12 c0 -2 -9 -6 -20 -9 -11
-3 -20 -1 -20 4 0 5 9 9 20 9 11 0 20 -2 20 -4z m-3700 -16 c0 -5 -5 -10 -11
-10 -5 0 -7 5 -4 10 3 6 8 10 11 10 2 0 4 -4 4 -10z m216 -42 c-12 -76 -44
-195 -45 -164 -1 29 40 206 47 206 2 0 1 -19 -2 -42z m2439 33 c3 -6 -3 -15
-14 -21 -14 -7 -22 -7 -27 2 -4 7 -3 8 5 4 6 -4 14 0 17 8 7 18 11 20 19 7z
m755 2 c-1 -23 -18 -35 -36 -24 -18 10 -18 10 4 11 12 0 22 5 22 10 0 6 2 10
5 10 3 0 5 -3 5 -7z m-70 -13 c-8 -5 -19 -10 -25 -10 -5 0 -3 5 5 10 8 5 20
10 25 10 6 0 3 -5 -5 -10z m43 -34 c4 -10 1 -13 -9 -9 -15 6 -19 23 -5 23 5 0
11 -7 14 -14z m557 -20 c0 -2 -7 -6 -15 -10 -8 -3 -15 -1 -15 4 0 6 7 10 15
10 8 0 15 -2 15 -4z m-240 -16 c0 -5 -10 -10 -22 -10 -19 0 -20 2 -8 10 19 13
30 13 30 0z m193 -7 c-4 -9 6 -13 28 -14 l34 -1 -30 -8 c-54 -14 -65 -12 -65
13 0 16 6 23 19 23 11 0 17 -5 14 -13z m-1381 -20 c-3 -16 -7 -22 -10 -15 -4
13 4 42 11 42 2 0 2 -12 -1 -27z m913 -12 c-6 -5 -25 10 -25 20 0 5 6 4 14 -3
8 -7 12 -15 11 -17z m-3525 6 c0 -17 -42 -15 -48 1 -2 7 7 12 22 12 15 0 26
-6 26 -13z m3800 9 c0 -3 -4 -8 -10 -11 -5 -3 -10 -1 -10 4 0 6 5 11 10 11 6
0 10 -2 10 -4z m-196 -32 c3 -8 2 -12 -4 -9 -6 3 -10 10 -10 16 0 14 7 11 14
-7z m-1007 -26 c-3 -8 -6 -5 -6 6 -1 11 2 17 5 13 3 -3 4 -12 1 -19z m-2376
-11 c-10 -9 -11 -8 -5 6 3 10 9 15 12 12 3 -3 0 -11 -7 -18z m3329 3 l23 -20
-26 0 c-20 0 -25 5 -24 20 1 11 2 20 3 20 0 0 11 -9 24 -20z m-3540 -6 c0 -8
-5 -12 -10 -9 -6 4 -8 11 -5 16 9 14 15 11 15 -7z m120 -41 c-11 -17 -11 -17
-6 0 3 10 6 24 7 30 0 9 2 9 5 0 3 -7 0 -20 -6 -30z m38 -23 c-19 -29 -39 -34
-28 -7 4 12 13 21 19 19 7 -1 9 8 6 25 -5 26 -5 26 5 5 7 -16 6 -28 -2 -42z
m3671 56 c-10 -9 -79 -14 -79 -5 0 5 19 9 42 9 23 0 39 -2 37 -4z m54 -3 c-7
-2 -19 -2 -25 0 -7 3 -2 5 12 5 14 0 19 -2 13 -5z m-3682 -30 c-12 -20 -14
-14 -5 12 4 9 9 14 11 11 3 -2 0 -13 -6 -23z m3829 -4 c-65 -55 -90 -71 -90
-57 0 7 7 21 15 31 7 11 11 26 8 35 -4 15 -3 15 9 0 14 -16 17 -16 49 1 48 26
49 25 9 -10z m-3773 -41 c-3 -7 -5 -2 -5 12 0 14 2 19 5 13 2 -7 2 -19 0 -25z
m-168 -53 c-31 -74 -37 -61 -8 16 12 35 25 57 27 51 2 -7 -6 -37 -19 -67z
m3574 48 c-7 -2 -21 -2 -30 0 -10 3 -4 5 12 5 17 0 24 -2 18 -5z m-3493 -8 c0
-2 -10 -9 -22 -15 -22 -11 -22 -10 -4 4 21 17 26 19 26 11z m2295 -15 c3 -6
-1 -7 -9 -4 -18 7 -21 14 -7 14 6 0 13 -4 16 -10z m-2225 -85 c-7 -41 -15 -73
-17 -71 -3 2 1 38 8 80 7 41 15 73 17 71 3 -3 -1 -39 -8 -80z m1680 54 c0 -11
-4 -17 -10 -14 -5 3 -10 13 -10 21 0 8 5 14 10 14 6 0 10 -9 10 -21z m-764
-25 c25 -20 67 -47 92 -61 25 -14 56 -38 69 -54 13 -15 39 -33 57 -39 19 -6
42 -20 52 -31 16 -17 9 -16 -38 8 -31 17 -71 42 -88 57 -17 14 -52 38 -76 52
-24 14 -44 30 -44 34 0 15 -75 55 -115 61 l-40 6 42 1 c34 2 50 -5 89 -34z
m2614 26 c0 -5 -4 -10 -10 -10 -5 0 -10 5 -10 10 0 6 5 10 10 10 6 0 10 -4 10
-10z m-2763 -6 c-3 -3 -12 -4 -19 -1 -8 3 -5 6 6 6 11 1 17 -2 13 -5z m2773
-24 c0 -5 -2 -10 -4 -10 -3 0 -8 5 -11 10 -3 6 -1 10 4 10 6 0 11 -4 11 -10z
m37 4 c-3 -3 -12 -4 -19 -1 -8 3 -5 6 6 6 11 1 17 -2 13 -5z m148 -43 c3 -5 1
-12 -5 -16 -5 -3 -10 1 -10 9 0 18 6 21 15 7z m-205 -51 c0 -5 -5 -10 -11 -10
-5 0 -7 5 -4 10 3 6 8 10 11 10 2 0 4 -4 4 -10z m-3713 -22 c-3 -8 -6 -5 -6 6
-1 11 2 17 5 13 3 -3 4 -12 1 -19z m3930 -20 c-3 -8 -6 -5 -6 6 -1 11 2 17 5
13 3 -3 4 -12 1 -19z m-3877 8 c0 -3 -4 -8 -10 -11 -5 -3 -10 -1 -10 4 0 6 5
11 10 11 6 0 10 -2 10 -4z m3473 -13 c-7 -2 -19 -2 -25 0 -7 3 -2 5 12 5 14 0
19 -2 13 -5z m-40 -16 c4 3 7 1 7 -5 0 -7 -4 -12 -10 -12 -5 0 -13 -1 -17 -2
-3 -2 -7 5 -9 15 -2 14 1 15 10 8 7 -6 16 -8 19 -4z m47 -27 c0 -5 -5 -10 -11
-10 -5 0 -7 5 -4 10 3 6 8 10 11 10 2 0 4 -4 4 -10z m248 4 c-6 -5 -32 -12
-55 -13 -7 -1 -12 -4 -12 -8 3 -20 -2 -27 -10 -14 -14 21 9 40 48 41 19 0 32
-3 29 -6z m70 -1 c-10 -2 -28 -2 -40 0 -13 2 -5 4 17 4 22 1 32 -1 23 -4z
m-2408 -50 c12 -16 29 -31 38 -35 14 -5 12 -7 -5 -7 -13 -1 -23 3 -23 8 0 4
-11 20 -25 35 -13 14 -20 26 -15 26 5 0 18 -12 30 -27z m2500 7 c0 -5 -4 -10
-10 -10 -5 0 -10 5 -10 10 0 6 5 10 10 10 6 0 10 -4 10 -10z m-4034 -67 c-14
-26 -25 -45 -26 -41 0 12 43 98 48 94 2 -2 -8 -26 -22 -53z m3814 33 c0 -3 -4
-8 -10 -11 -5 -3 -10 -1 -10 4 0 6 5 11 10 11 6 0 10 -2 10 -4z m50 0 c0 -11
-19 -15 -25 -6 -3 5 1 10 9 10 9 0 16 -2 16 -4z m70 0 c0 -3 -4 -8 -10 -11 -5
-3 -10 -1 -10 4 0 6 5 11 10 11 6 0 10 -2 10 -4z m37 -2 c-3 -3 -12 -4 -19 -1
-8 3 -5 6 6 6 11 1 17 -2 13 -5z m103 -10 c0 -2 -12 -4 -26 -4 -14 0 -23 4
-20 9 6 8 46 4 46 -5z m-2442 -25 c19 -30 8 -34 -12 -4 -9 14 -13 25 -9 25 5
0 14 -9 21 -21z m290 -58 c6 -8 12 -29 11 -45 0 -31 0 -31 -19 11 -14 31 -26
43 -48 48 -17 3 -38 15 -48 26 -17 18 -15 18 37 -2 30 -12 60 -29 67 -38z
m2058 22 c-7 -8 -100 -11 -111 -5 -5 4 8 9 30 12 41 5 89 1 81 -7z m-136 -3
c0 -4 -13 -10 -29 -12 -20 -3 -27 0 -24 8 5 13 53 16 53 4z m-3859 -51 c-5
-13 -10 -19 -10 -12 -1 15 10 45 15 40 3 -2 0 -15 -5 -28z m3982 24 c-7 -2
-19 -2 -25 0 -7 3 -2 5 12 5 14 0 19 -2 13 -5z m-3883 -7 c0 -2 -8 -10 -17
-17 -16 -13 -17 -12 -4 4 13 16 21 21 21 13z m3890 -20 c0 -2 -9 -6 -20 -9
-11 -3 -20 -1 -20 4 0 5 9 9 20 9 11 0 20 -2 20 -4z m-160 -16 c0 -5 -8 -10
-17 -10 -15 0 -16 2 -3 10 19 12 20 12 20 0z m40 0 c0 -5 -5 -10 -11 -10 -5 0
-7 5 -4 10 3 6 8 10 11 10 2 0 4 -4 4 -10z m40 0 c0 -5 -7 -10 -15 -10 -8 0
-15 5 -15 10 0 6 7 10 15 10 8 0 15 -4 15 -10z m80 -20 c0 -5 -4 -10 -10 -10
-5 0 -10 5 -10 10 0 6 5 10 10 10 6 0 10 -4 10 -10z m-160 -14 c0 -3 -4 -8
-10 -11 -5 -3 -10 -1 -10 4 0 6 5 11 10 11 6 0 10 -2 10 -4z"/>
<path d="M2820 3503 c0 -4 11 -13 25 -20 14 -6 23 -7 19 -2 -8 13 -44 31 -44
22z"/>
<path d="M2896 3477 c3 -10 9 -15 12 -12 3 3 0 11 -7 18 -10 9 -11 8 -5 -6z"/>
<path d="M391 2614 c0 -11 3 -14 6 -6 3 7 2 16 -1 19 -3 4 -6 -2 -5 -13z"/>
<path d="M330 2590 c19 -13 30 -13 30 0 0 6 -10 10 -22 10 -19 0 -20 -2 -8
-10z"/>
<path d="M491 2593 c-1 -18 10 -43 20 -43 5 0 9 12 9 28 0 19 -3 23 -9 13 -7
-11 -9 -11 -14 0 -3 9 -6 9 -6 2z"/>
<path d="M540 2579 c0 -5 5 -7 10 -4 6 3 10 8 10 11 0 2 -4 4 -10 4 -5 0 -10
-5 -10 -11z"/>
<path d="M400 2570 c0 -5 5 -10 11 -10 5 0 7 5 4 10 -3 6 -8 10 -11 10 -2 0
-4 -4 -4 -10z"/>
<path d="M440 2561 c0 -17 18 -21 24 -6 3 9 0 15 -9 15 -8 0 -15 -4 -15 -9z"/>
<path d="M570 2535 c0 -8 4 -15 8 -15 5 0 9 7 9 15 0 8 -4 15 -9 15 -4 0 -8
-7 -8 -15z"/>
<path d="M581 2494 c0 -11 3 -14 6 -6 3 7 2 16 -1 19 -3 4 -6 -2 -5 -13z"/>
<path d="M566 866 c5 -13 44 -30 51 -22 11 10 -13 36 -33 36 -16 0 -22 -4 -18
-14z"/>
<path d="M930 2136 c0 -3 9 -10 20 -16 11 -6 20 -8 20 -6 0 3 -9 10 -20 16
-11 6 -20 8 -20 6z"/>
<path d="M890 1940 c6 -11 13 -20 16 -20 2 0 0 9 -6 20 -6 11 -13 20 -16 20
-2 0 0 -9 6 -20z"/>
<path d="M985 1460 c-16 -4 -52 -17 -80 -29 -44 -19 -46 -21 -15 -15 49 8 130
37 130 46 0 5 -1 8 -2 7 -2 -1 -16 -4 -33 -9z"/>
<path d="M820 1399 c0 -5 5 -7 10 -4 6 3 10 8 10 11 0 2 -4 4 -10 4 -5 0 -10
-5 -10 -11z"/>
<path d="M482 1198 c-14 -14 -16 -32 -3 -24 5 4 11 1 13 -6 3 -7 7 -5 11 6 5
11 3 15 -5 10 -8 -5 -9 -2 -5 9 8 20 5 21 -11 5z"/>
<path d="M3120 1189 c0 -5 5 -7 10 -4 6 3 10 8 10 11 0 2 -4 4 -10 4 -5 0 -10
-5 -10 -11z"/>
<path d="M3170 1139 c0 -5 5 -7 10 -4 6 3 10 8 10 11 0 2 -4 4 -10 4 -5 0 -10
-5 -10 -11z"/>
<path d="M2723 1122 c-21 -7 -21 -7 9 -42 24 -28 27 -30 14 -7 -20 33 -12 51
20 43 14 -4 24 -2 24 4 0 11 -32 12 -67 2z"/>
<path d="M349 1038 c-50 -62 -79 -107 -79 -121 0 -7 6 -3 12 8 7 11 22 28 35
38 13 10 23 25 23 33 0 8 8 17 18 21 9 3 26 13 36 22 18 15 19 15 13 -1 -10
-28 7 -21 20 8 10 22 10 24 -3 14 -11 -10 -14 -9 -14 4 0 28 -26 17 -61 -26z"/>
<path d="M2890 606 c0 -20 4 -36 9 -36 13 0 22 28 10 35 -5 4 -7 10 -4 15 3 5
1 11 -5 15 -6 4 -10 -8 -10 -29z"/>
<path d="M2840 591 c0 -17 5 -31 10 -31 6 0 10 11 10 24 0 14 -4 28 -10 31 -6
4 -10 -7 -10 -24z"/>
<path d="M2841 534 c0 -11 3 -14 6 -6 3 7 2 16 -1 19 -3 4 -6 -2 -5 -13z"/>
<path d="M3487 532 c-4 -4 -4 -23 -2 -40 4 -34 -10 -51 -28 -33 -16 16 -27 14
-27 -5 0 -8 5 -12 10 -9 6 3 10 2 10 -3 0 -5 -10 -13 -22 -16 -22 -7 -22 -8
-4 -15 11 -4 33 -7 49 -6 l31 1 -3 65 c-3 66 -5 77 -14 61z"/>
<path d="M2960 377 c-5 -63 1 -86 17 -65 21 28 24 38 9 32 -12 -4 -16 5 -18
43 l-3 48 -5 -58z"/>
<path d="M3260 426 c0 -2 9 -6 20 -9 11 -3 20 -1 20 4 0 5 -9 9 -20 9 -11 0
-20 -2 -20 -4z"/>
<path d="M3232 280 c-2 -104 -5 -131 -14 -122 -7 7 -26 12 -42 11 l-31 -1 31
-9 c62 -18 71 -69 9 -53 -20 5 -23 9 -13 15 16 11 -53 12 -141 3 l-61 -7 0
-43 c0 -41 6 -49 33 -45 4 0 7 -4 7 -10 0 -6 -9 -9 -20 -6 -11 3 -20 1 -20 -3
0 -5 31 -8 69 -7 38 1 67 5 64 10 -2 4 3 7 11 7 9 0 16 -4 16 -10 0 -14 126
-12 151 3 17 9 23 9 26 0 3 -7 11 -13 18 -13 7 0 16 6 18 13 4 9 6 9 6 0 2
-28 19 -11 23 22 3 27 0 36 -14 41 -15 4 -18 17 -18 69 0 96 -16 158 -51 191
-38 36 -38 22 0 -22 32 -36 46 -102 39 -190 -3 -39 -7 -48 -21 -46 -12 2 -15
-2 -10 -14 4 -11 3 -15 -4 -11 -6 4 -14 1 -16 -5 -3 -7 -6 10 -6 37 -1 36 -4
46 -11 35 -12 -18 -11 -25 -20 150 l-6 145 -2 -135z m-82 -170 c0 -5 -4 -10
-10 -10 -5 0 -10 5 -10 10 0 6 5 10 10 10 6 0 10 -4 10 -10z m40 -30 c0 -5 -7
-10 -15 -10 -8 0 -15 5 -15 10 0 6 7 10 15 10 8 0 15 -4 15 -10z m-150 -26 c0
-2 -11 -4 -25 -4 -14 0 -25 4 -25 9 0 4 11 6 25 3 14 -2 25 -6 25 -8z m313 -4
c-3 -12 -8 -19 -11 -16 -5 6 5 36 12 36 2 0 2 -9 -1 -20z m-256 -16 c-3 -3
-12 -4 -19 -1 -8 3 -5 6 6 6 11 1 17 -2 13 -5z m61 -1 c-10 -2 -26 -2 -35 0
-10 3 -2 5 17 5 19 0 27 -2 18 -5z"/>
<path d="M2977 263 c-4 -3 -7 -11 -7 -17 0 -6 5 -5 12 2 6 6 9 14 7 17 -3 3
-9 2 -12 -2z"/>
<path d="M2970 155 c0 -8 2 -15 4 -15 2 0 6 7 10 15 3 8 1 15 -4 15 -6 0 -10
-7 -10 -15z"/>
<path d="M3435 80 c-16 -7 -17 -9 -3 -9 9 -1 20 4 23 9 7 11 7 11 -20 0z"/>
<path d="M3475 30 c27 -12 43 -12 25 0 -8 5 -22 9 -30 9 -10 0 -8 -3 5 -9z"/>
</g>
</svg>
